/* XPM */
static char *b7402b1057e140fe8490a1083e680c88TmD8QPU8DGomssgT[] = {
/* columns rows colors chars-per-pixel */
"64 64 233 2 ",
"   c #A9550B",
".  c #AA572F",
"X  c #9D6C34",
"o  c #9D6447",
"O  c #A96E4C",
"+  c #AF5E64",
"@  c #AF6565",
"#  c #009E00",
"$  c #00A501",
"%  c #00AB00",
"&  c #00A80A",
"*  c #01BB00",
"=  c #03B807",
"-  c #02AD16",
";  c #00A519",
":  c #06A41A",
">  c #02A919",
",  c #12AB1D",
"<  c #04B315",
"1  c #0AB317",
"2  c #06BB12",
"3  c #09BD11",
"4  c #13B41A",
"5  c #039B38",
"6  c #10AA26",
"7  c #26BA28",
"8  c #2DB532",
"9  c #5EBD3B",
"0  c #68AA2C",
"q  c #01C501",
"w  c #01CA01",
"e  c #0BC904",
"r  c #05C50A",
"t  c #0AC50C",
"y  c #04CA0A",
"u  c #0CC90B",
"i  c #13C909",
"p  c #13CB0C",
"a  c #19CF0D",
"s  c #05D403",
"d  c #00DC00",
"f  c #14D600",
"g  c #1CD301",
"h  c #1DD10E",
"j  c #09C613",
"k  c #0FC81B",
"l  c #15C514",
"z  c #1AC416",
"x  c #13C913",
"c  c #1AC81A",
"v  c #1ED218",
"b  c #26DA07",
"n  c #21D50E",
"m  c #24D80E",
"M  c #25C716",
"N  c #33C015",
"B  c #25D613",
"V  c #26DA10",
"C  c #2ADD11",
"Z  c #29D71A",
"A  c #00E500",
"S  c #0CE501",
"D  c #02EA00",
"F  c #17E801",
"G  c #24E600",
"H  c #2DE500",
"J  c #2DE802",
"K  c #29E608",
"L  c #33E600",
"P  c #33E705",
"I  c #2EE112",
"U  c #2BE117",
"Y  c #32E613",
"T  c #34E813",
"R  c #33E61A",
"E  c #3AE71A",
"W  c #35E81A",
"Q  c #0FC722",
"!  c #17CB28",
"~  c #18C938",
"^  c #2DD721",
"/  c #35E722",
"(  c #3CE724",
")  c #39E825",
"_  c #34E62C",
"`  c #35E539",
"'  c #4CC51A",
"]  c #41E717",
"[  c #5EC137",
"{  c #49D332",
"}  c #46E334",
"|  c #0EA54E",
" . c #7EA948",
".. c #71B769",
"X. c #1CC947",
"o. c #2FD04D",
"O. c #26CC58",
"+. c #39E84A",
"@. c #3DE85A",
"#. c #32D069",
"$. c #35D377",
"%. c #3FE862",
"&. c #5BD552",
"*. c #6DD84D",
"=. c #5DE24B",
"-. c #47DD72",
";. c #79CD7B",
":. c #43EA72",
">. c #898537",
",. c #9E8D49",
"<. c #88B556",
"1. c #A78A75",
"2. c #B89B77",
"3. c #8AA679",
"4. c #AAB66C",
"5. c #8ACE67",
"6. c #BD7A97",
"7. c #EB5CBF",
"8. c #D56EA2",
"9. c #DE72B6",
"0. c #F85CCD",
"q. c #ED6FC7",
"w. c #FC64D5",
"e. c #FA6CD6",
"r. c #FC6DD9",
"t. c #F672D7",
"y. c #F870D7",
"u. c #F675D8",
"i. c #FB75DB",
"p. c #F67BDA",
"a. c #FA7CDC",
"s. c #67B39C",
"d. c #3DD48D",
"f. c #3FD493",
"g. c #3DF394",
"h. c #4FD794",
"j. c #4CE98D",
"k. c #4EEB99",
"l. c #4CDCAD",
"z. c #52DEB8",
"x. c #6AD9B0",
"c. c #52EAA8",
"v. c #50EDAF",
"b. c #57ECB7",
"n. c #63BFFA",
"m. c #5DD0C2",
"M. c #66D8CB",
"N. c #5AEAC5",
"B. c #5DE9CF",
"V. c #62EED4",
"C. c #62E9D9",
"Z. c #65F0DC",
"A. c #64C1FA",
"S. c #67C9FA",
"D. c #68CDFB",
"F. c #6CD5FC",
"G. c #6DD9FC",
"H. c #4DF6F3",
"J. c #59F8FC",
"K. c #64EAE0",
"L. c #6AEEED",
"P. c #69F1E7",
"I. c #6BEEF0",
"U. c #6EE3FB",
"Y. c #6FECFA",
"T. c #75EEF7",
"R. c #7DEFF9",
"E. c #6EF1F5",
"W. c #63F6FB",
"Q. c #6EF3FA",
"!. c #64F8FD",
"~. c #6BF9FF",
"^. c #70F3FA",
"/. c #76F2F9",
"(. c #979B8C",
"). c #A09A8C",
"_. c #A59C90",
"`. c #87AA8D",
"'. c #A9AC98",
"]. c #B595B0",
"[. c #86B3AC",
"{. c #ADADB6",
"}. c #C88CB4",
"|. c #C7B6AA",
" X c #8EC991",
".X c #A8D38F",
"XX c #BDABCD",
"oX c #D58EC7",
"OX c #D29BC8",
"+X c #E887D6",
"@X c #EC8CDC",
"#X c #F587DB",
"$X c #FA84DE",
"%X c #E794DE",
"&X c #C4A6C9",
"*X c #D7A7D8",
"=X c #DF9FE0",
"-X c #FC86E1",
";X c #FB8BE1",
":X c #F888E2",
">X c #E799E3",
",X c #F491E2",
"<X c #FC93E3",
"1X c #FC9BE5",
"2X c #D9A9E3",
"3X c #C9BBE8",
"4X c #D4B7E7",
"5X c #E7A4E5",
"6X c #FBA3E6",
"7X c #F9A5E8",
"8X c #F3ACE8",
"9X c #E2B3E7",
"0X c #ECB3EA",
"qX c #E2BBEC",
"wX c #F0B0E9",
"eX c #8BC6C7",
"rX c #8ACFD2",
"tX c #89D4D5",
"yX c #B7C1D5",
"uX c #A8CEE4",
"iX c #B7C9EA",
"pX c #AED3EF",
"aX c #BACEF0",
"sX c #A8DBF3",
"dX c #B3D7F1",
"fX c #87EAF7",
"gX c #8DE9F7",
"hX c #96E6F6",
"jX c #A7E1F5",
"kX c #C8C9EE",
"lX c #DAC2ED",
"zX c #D1C9EF",
"xX c #C3D2F2",
/* pixels */
"A.A.A.A.A.A.A.A.A.A.A.A.A.A.A.A.A.A.A.A.A.n.n.n.n.A.A.n.A.A.A.A.A.A.A.A.A.A.A.A.A.A.A.n.A.A.A.A.A.A.n.A.A.A.A.A.A.A.A.A.A.A.A.A.",
"A.A.A.A.A.A.A.n.A.A.A.A.A.A.n.n.A.n.n.n.A.F.F.n.n.n.A.A.A.A.A.A.A.A.A.A.A.A.A.A.A.A.A.A.A.A.A.A.A.A.A.A.A.A.A.A.A.A.A.A.A.A.A.A.",
"A.A.A.A.A.A.A.A.A.A.A.A.A.A.S.D.n.A.D.A.F.G.G.S.A.A.A.A.A.A.A.A.A.A.A.A.A.A.A.A.A.A.A.A.A.A.A.A.A.A.A.A.A.A.A.A.A.A.A.A.A.A.A.A.",
"A.A.A.A.A.A.A.A.A.n.A.n.n.S.G.G.D.G.G.F.G.G.F.D.G.G.A.n.A.A.A.A.n.A.A.A.A.A.n.A.A.A.A.A.A.A.A.A.A.A.A.A.A.A.n.A.A.A.n.A.n.A.A.A.",
"A.A.A.A.A.A.A.A.A.S.F.A.S.G.G.G.F.D.G.G.G.G.G.F.G.G.S.n.n.n.A.A.A.A.A.A.A.A.A.A.A.A.A.A.A.A.A.A.n.n.A.A.A.A.A.A.A.A.A.A.n.A.A.A.",
"n.n.A.A.A.A.A.n.S.G.G.F.G.G.G.G.G.G.G.G.F.G.G.G.G.G.F.F.A.n.A.A.A.A.A.A.A.A.A.A.A.A.A.A.A.A.A.n.A.D.A.n.A.A.A.A.A.A.A.D.S.n.A.A.",
"S.A.n.A.A.A.A.A.A.D.G.G.G.G.G.G.G.F.G.F.G.G.G.G.G.G.G.G.F.n.n.A.A.A.A.A.A.A.A.A.A.A.A.A.n.A.S.A.F.G.G.F.S.n.A.A.A.n.D.G.G.D.A.A.",
"G.F.F.A.A.A.A.A.n.S.F.G.G.G.G.G.G.G.G.G.G.G.G.G.G.G.F.F.A.n.A.A.n.A.n.A.A.A.A.A.A.A.A.A.A.S.G.F.D.G.G.G.F.n.A.A.A.n.S.G.F.F.F.F.",
"G.G.G.D.n.n.A.A.A.G.G.G.G.G.G.G.G.G.G.G.G.G.G.F.F.G.G.F.n.A.G.F.A.n.A.A.A.A.A.A.A.A.A.A.A.F.G.G.S.F.F.G.D.n.A.n.D.F.D.G.G.G.G.G.",
"G.G.G.D.D.D.A.n.n.G.G.G.G.G.F.G.G.G.F.G.F.G.G.G.G.G.G.G.F.F.G.G.D.n.A.A.A.A.A.A.A.n.A.n.S.G.G.F.G.F.G.F.F.S.n.A.G.G.U.G.G.G.F.G.",
"G.G.G.F.G.G.A.A.S.S.G.G.G.F.G.G.F.G.G.G.G.G.G.G.G.G.F.G.G.G.G.D.A.n.A.A.A.A.A.A.A.A.F.D.D.G.F.G.G.G.G.F.F.F.F.F.F.U.Q.^.U.F.G.U.",
"G.G.G.G.G.G.F.F.G.G.G.G.G.G.G.G.G.G.G.F.G.G.F.G.G.G.G.G.G.F.F.S.G.D.A.A.A.A.A.A.n.F.G.F.F.F.G.G.G.G.G.G.G.F.G.G.F.G.Q.^.Y.Y.^.^.",
"G.G.G.G.F.G.G.G.G.G.G.G.G.F.G.G.F.G.G.G.F.G.G.G.F.G.G.G.G.G.G.G.G.U.A.n.A.A.A.n.S.S.F.G.G.G.G.G.G.F.G.G.F.U.G.F.Y.U.Y.^.^.^.^.^.",
"G.G.G.G.G.G.G.G.G.G.G.G.G.G.G.G.G.G.G.G.G.G.G.G.G.G.G.G.F.F.G.G.T./.U.A.n.A.A.D.F.F.F.G.G.G.G.F.G.G.G.F.G.^.^.^.^.Y.^.^.^.^.^.Y.",
"G.F.F.G.G.G.G.G.G.G.G.G.G.G.F.F.G.G.G.G.G.G.G.F.G.G.G.G.G.Y.G.U.^.^.^.Q.D.n.A.F.G.G.G.G.G.G.G.G.G.G.G.F.F.Y.^.^.^.^.^.Q.^.^.^.Q.",
"G.Y.G.G.G.F.G.G.G.F.G.G.G.G.U.U.G.F.F.F.G.G.G.G.G.F.G.G.Q.^.^.U.^.^.^.^.U.n.n.A.D.G.G.G.G.F.G.G.G.G.F.U.Y.Y.^.Y.^.^.^.^.^.^.^.^.",
"/.^.Y.G.G.G.G.F.G.G.G.G.F.U.^.^.U.G.^.U.F.G.G.G.G.G.^.U.Y.^.^.U.^.^.^.Q.G.D.S.S.D.G.G.G.G.F.G.G.G.E.Y.^.^.Q.^.^.^.^.Q.^.^.^.^.^.",
"^.^.^.Y.G.G.G.G.G.Y.^.G.G.U.^.^.Y.^.^.Y.F.F.G.G.G.Q.^.^.^.^.^.^.^.^.^.U.G.G.G.G.G.G.F.G.G.G.G.F.^.^.^.^.^.^.^.^.^.^.^.^.^.^.^.^.",
"^.^.^.^.U.F.G.F.G.^.^.Q.^.Q.^.^.^.^.^.Y.G.G.F.G.G.Y.^.^.^.^.^.^.^.^.^.G.G.G.F.G.G.G.G.G.G.G.G.F.U.^.^.^.^.^.^.Q.^.^.^.^.^.^.Q.^.",
"^.^.^.^.U.G.G.G.Y.^.^.^.^.^.^.^.Q.^.^.^.^.^.U.G.Y.^.Q.^.^.^.Q.^.^.Q.^.Y.Y.Q.Y.G.G.G.F.G.F.G.G.G.G.U.^.^.^.^.^.^.Q.^.^.^.^.^.^.^.",
"^.^.^.^.Y.U.G.Y.^.^.^.^.^.^.^.^.^.^.^.^.^.^.U.U.Q.Q./.^.^.^.^.^.^./.^.^.^.^.Q.U.G.^.Y.G.G.G.G.G.G.G.Q.^.^.^.^.^.^.^.^.Q.^.^.^.^.",
"^.^.^.^.^.^.G.U.^.^.^.^.^.^.^.^.^.^.^.^.^.^.Y./.^.^.W.Q.^./.Q.W.Q.!.Q.T.^.Q.^.^.^.^.^.G.G.G.G.G.U.^.^.^.^.^.^.^.^.^.^.^.^.Q.^.^.",
"^.^.^.^.^.U.U.Y.Y.Q.^.^.^.Q.^.Q.^.Q.^.^.Q.Q.^.W.Q.J.hXgXW.W.Q.zXhXfXfXJ.Q.Q.^.^.^.^.Y.U.G.G.G.G.^.^.^.^.^.Q.^.^.^.^.^.^.^.^.^.^.",
"Q.^.^.^.Y.U.^.^.^.^.^.^.^.^.^.^.^.^.^.^.^.Q.Q.sXgXjXqX8XlXlXzX6XwX8XlXsXfX^.^.Q.^.^.^.^.U.F.G.Y.U.^.^.^.^.^.^.^.Q.^.^.^.^.^.Q.^.",
"^.^.^.^.Q.^.^.^.^.Q.^.^.^.^.^.^.^.^.^.^.Q.T.hX0X8X7X8X1X<X1X6X7X1X1X<X8X/.Q.Q.Q.Q.^.^.^.Q.G.Y.^.^.E.^.^.^.^.Q.^.^.^.^.^.^.^.^.^.",
"^.^.^.^.^.^.^.^.^.^.^.^.Q.^.^.^.^.^.Q./.W.gX@X;X<X<X1X<X<X6X6X1X<X<X<X;XkXW.T.^./.^.^.^.^.^.^.^.^.^.^.^.^.^.^.^.^.^.^.^.^.Q.^.^.",
"^.^.^.Q.^.^.^.^.^.Q.^.^.^.^.^.Q.^./.^./.Q.3Xi.$X$X$X$X;X;X<X<X$X-X;X;Xu.a.2XhXJ.W.Q.^.^.^.^.^.^.^.^.^.^.^.^.^.^.^.^.^.^.^.^.^.^.",
"^.^.^.^.^.^.^.Q.^.^.^.^.^.^.^.^.Q.W.^.!.R.5X#X$X$X$Xu.$X$X#X$X$Xu.a.-Xp.w.2X/.dXdX^.!.Q.Q.^.Q.^.^.Q.^.^.Q.^.^.^.^.^.Q.^.^.Q.^.^.",
"^.^.^.^.^.^.^.^.^.^.^.^.Q.^.^.Q.fXhXJ.hXfXjX2Xw.r.r.t.a.$X$Xt.a.#Xt.$X<Xp.xXlX0X8XhXhXgXgXW./.Q.^.^.^.^.^.^.Q.^.^.^.^.^.^.^.^.^.",
"Q.^.^.Q.^.^.^.^.^.^.^.^.^.^.^.J.jX6XzXqX0XlXaX3XXX2X@Xe.$X$Xe.=X4X@X6X7X1X7X7X6X9X0XlXxXqXgXW./.^.^.^.^.^.^.^.^.^.^.^.^.^.^.^.Q.",
"^.^.^.^.^.^.^.^.^.Q.^.^.Q./.W.dX8X1X6X7X<X0XqXxXyX9X6X#Xe.$X%XlXwX6X7X7X7X1X1X6X6X1XwX8X1XxXQ.Q.^.^.Q.^.^.^.Q.^.^.^.^.^.^.^.^.^.",
"^.^.^.^.^.Q.^.^.^.^.^.^.^.^.J.4Xi.1X1X<X1X<X<X<X6X<X6X6X$Xq.*X7X#X<X1X7X1X#X;X;X<X6X6X<X<X8XsXW./.^.^.^.^.^.^.^.^.^.^.E.Q.^.^.^.",
"^.^.^.^.^.^.^.^.^.^.^.^.T.J.pXu.#X;X:X:X;X$X<X<X1X<X,X1X;X&X#X;X$X$X1X1X$Xa.a.$X;X;X1X<X;X;X2XfXQ.^.^.^.^.^.^.^.^.^.^.^.^.^.^.^.",
"^.Q.^.^.^.^.^.Q.^.^.^.^./.^.T.2Xa.;X#X#Xi.y.a.u.$X$X;X;Xi.i.;X$X$Xu.$X<X$Xy.a.#X;X;X;X;X;X;Xa.iX!.^.^.^.^.^.Q.^.^.^.^.^.Q.^.^.^.",
"^.^.^.^.^.^.^.^.Q.^.Q.^.^./.!.hX2X0.a.0.+X#X+Xp.i.e.-X0.2XiX9.u.t.u.a.$X$Xa.t.a.$X$X$Xp.a.a.w.pX!./.^.^.^.^.^.^.^.Q.^.^.^.^.^.^.",
"^.^.^.^.^.Q.^.^.^.^.^.^.^.Q.T.!.aX2X>X*X[.XXaXp.;X}.9.@X[.m.+ +Xr.7.oXa.r.e.u.u.u.$Xu.e.@X%X4XfXQ.^.^.^.^.^.Q.^.^.^.^.^.^.^.^.Q.",
"^.^.^.^.^.Q.^.^.^.^.^.^.^.Q.^.^.Q.J.fX/.T.eX*X5X4X4X*X7XOX@ O }.>XOX6.q.&X3Xp.q.t.u.p.2XsXR.Q.Q.Q.Q.^.^.^.Q.^.^.^.^.^.^.^.^.Q.^.",
"^.Q.^.^.^.^.^.^.^.^.^.Q.^.^.^.^.Y.^.Q.Q.R.5X$X1X;X;X<X;X1X-X8.  tXeX. rXH.uX8.{.@XsXpX3XJ.Q.^.^.^.^.^.^.^.^.^.^.^.^.^.^.^.^.^.^.",
"^.^.^.^.^.^.^.^.^.^.^.^.^.^.^.^.^.Q.^.Q.fX@Xw.@Xp.a.a.w.t.#X].o 1.1.1.).'._.tXfXhXJ.Q././.E.^.^.^.^.^.^.^.^.^.^.^.^.^.^.Q.^.^.^.",
"^.E.Q.^.E.^.^.^.^.Q.^.^.^.Q.Y.Q.^.^.Q.Q.Y.fXaXfXuX}.@X,X%XiX[.. O tXQ.rXrXT.~.Q.W./.^.Q.^.^.^.^.Q.^.Q.^.^.^.^.E.Q.^.E.^.^.^.^.^.",
"^.^.^.Q.^.^.^.Q.^.^.^.^.Q.^.Q.Q.Q.^.^.^.^.Q.J.Q.~.M.].{.rXeX[.  _.^.E.Q.~.^./././.^.^./.^.^.^.~.^.Q.^.Q.^.^.Q.Q.^.E.^.^.Q.~.^.^.",
"^.E.Q.k.P.^.Q.^.^.L.^.^.l.L.E.Y.z.$.L.^.I.C./.Y./.~.M.s.(.1.o X 1.fX^.Z.P.V.v.^.Q.P.N.k.P.E./.P.P.Q.C.L.^.^.^.E.^.^.Q.^.^./.^.^.",
"C.c.V._ L b.k.v.P.d.l.K.O.#.f.N.O.q z.B.X.$.C.h.N.c.b.g.j.k. .. O tX~.c.+.:._ k.v.v.G ` N.v.N.%.j.L.$.O.K.N.L.C.$.V.:.V.V.V.V.^.",
"@.` / / F K L :.l.~ q X.k q #.~ q ~ ~ ~ * ~ ~ f +._ ` L L F ] O ,.k.:.:.P P J D +./ T +.+.+.L J T O.X.q d.* O.f.g L J _ @.:.@.c.",
"L P L J =.=.G +.H q ! f u ! g q k e e e Q q e R J T P W ( F ' X O [ D L _ F =..XE L R J L L W / R e w Q w k q q _ R / P F D J J ",
"/ W W S |.5.D E U B Y R C Y Z j y y j Z C v Z I ) ) T T V y >.>.O ,.j U ( S *.'.} J W T W W W T I v j u k j k v Y W E D 5.4.S ) ",
"I h I J &.} G W Y T T Y R L L B n h n Y T T T T D D E Y s N 0 M 0 0 h n T T F A J T T T T T T T T C p u t t e p C I R D *.4.S T ",
"h y V I d s V V T T Y R L ` +.L Y I Y T Y T E S  X;.A ) Y V s p s s m T T T E E T T T T T I T I T I n y c M y r p a K T F D T T ",
"u t u n M l r a I Y Y ) F h.x.G P R T Y T I U A '. XD ) Y T T V C W Y Y V I T W Y Y T T I T T Y T C p l q q x p p r a I C Z C T ",
"u u u r r u t u p h Y T P ` o.L Y T Y T T V p I D D W T Y Y T T T Y T n r n Y T Y E Y V h I T I n u x w ..;.q B B r y h u r n T ",
"3 t < < < > < z t B I Y I b b T Y Y T Y I a y a ^ Z a I Y Y T T T Y m a u u h V Y d s x y i p h u r c q `.{.q Z C Y m r r u h C ",
"> < - < ; > 4 * w B p h V v c m Y T Y m p u u r y r y u h Y Y I I a t r u u u i w 9 [ q l r < 3 u p u 3 * q u B I B V C a r t u ",
"; ; - < - l w <.9 q l r u p y p I I a u t u u u u h m h u V I u e j c j t t x l q 2.4.w z - : - u t - ; & q u u u r h I p a a r ",
"; ; ; ; 1 z * 2.<.d M r u u e y h h r u u t u u r C T Y m a r r z f d g r u u u r 3 t r 1 ; > 3 < > ; - 1 j u t t t u t r h n r ",
"; ; < t - > r q f C e t 3 2 t t r z z u t u y u h I Y Y T V n ^ J -.x.U i p u 3 1 - < 2 < ; - < ; ; ; ; 3 u u t u t 2 t u r u t ",
"; ; ; < - ; j i p r u t > ; < u z * % 4 t u p V Y Y T T T Y T R J #.h.K L a r - : : : < 3 > ; ; ; 7 , < 3 u t t < > < < t u u u ",
"; < ; ; ; ; - l u t t < > ; > 4 * 3.3.% 4 r h I T Y V Y T Y Y Y R g G T T a y 2 > < - ; ; ; ; > < = * z y u t < ; ; ; ; 2 u u u ",
"> u 2 ; ; ; > t t u t t ; ; : 6 $ (.).% 4 p t C C Y n a Y T Y Y T T R T Y h r u > - < ; ; ; - - 2 ..{ w l u u t > ; ; ; > 2 t < ",
"< u r > > 2 t u u t u 2 - ; ; > , $ $ 4 t u u u p C T Y C Y R n I T T T C B n r 2 < ; ; ; ; 4 * 4 |...% 7 e u r 2 ; > < ; ; < ; ",
"u u u 3 - u u u t t < t * ; ; 2 e 7 , ; 2 t t t p I Y T V a g r n Y I T Y T V r p t > > t - < u r 8 4 = 3 u u u 2 ; < < ; ; ; ; ",
"u u u t j u u u 2 ; : 1 $ # : 3 3 2 > ; - 3 - 3 3 u a Y Z g q e a p V Y V h h r u u < < u t t p < * w p e t 3 u 2 > ; ; ; ; ; > ",
"u u u u u u t u t > % | m.| % , ; < > ; < < ; ; 2 e t Z q &.{.8 w j a h p p h V u r t a m p y t t l x r 3 < ; 3 u 2 < 3 ; ; ; ; ",
"u t u u t t < 2 < - * 5 s.5 $ ; ; ; ; ; ; ; ; ; < u t l q o.`.7 w x u u n T I V I n I T Y V u u t u u 2 ; ; ; > - ; 2 < ; ; ; > ",
"u u t r < > ; ; ; ; ; # # & ; ; ; > ; ; ; ; > ; > < t u x w w q x y p V V T I p I T Y T Y Y I a y u t - ; ; ; ; ; ; ; ; ; > ; ; "
};
