/* XPM */
static char *abbb13e6abbf4b67e2d714807051210bgliZCXTw7zMPDhIE[] = {
/* columns rows colors chars-per-pixel */
"64 64 196 2 ",
"   c #669D2B",
".  c #64AE35",
"X  c #62AB3B",
"o  c #65A446",
"O  c #63AC42",
"+  c #6BA34A",
"@  c #65AD4C",
"#  c #66B043",
"$  c #69B445",
"%  c #67BF46",
"&  c #6DB943",
"*  c #67B14E",
"=  c #69B34D",
"-  c #6EBA4C",
";  c #70BC47",
":  c #70BC4E",
">  c #6BA654",
",  c #66AE51",
"<  c #6EA759",
"1  c #67AC5A",
"2  c #6EA85D",
"3  c #70AB5D",
"4  c #6BB552",
"5  c #6EB955",
"6  c #6CB25B",
"7  c #70BC56",
"8  c #7BB45A",
"9  c #72BE59",
"0  c #6EA960",
"q  c #72AC63",
"w  c #72AD6A",
"e  c #6CB266",
"r  c #77B061",
"t  c #7BB464",
"y  c #74BE63",
"u  c #7CB66A",
"i  c #75BF6B",
"p  c #7FB96C",
"a  c #73AE71",
"s  c #78AB73",
"d  c #6EB474",
"f  c #74B47B",
"g  c #75BC7D",
"h  c #66C043",
"j  c #75C34D",
"k  c #6FC253",
"l  c #76CB57",
"z  c #7DCD55",
"x  c #75C25C",
"c  c #78C65E",
"v  c #7CCC5D",
"b  c #7FD05E",
"n  c #75C162",
"m  c #79C760",
"M  c #7DCC63",
"N  c #7DC46C",
"B  c #7BC572",
"V  c #78C278",
"C  c #81BB6E",
"Z  c #82BD73",
"A  c #85B179",
"S  c #90C657",
"D  c #80D15F",
"F  c #80CF65",
"G  c #80C96A",
"H  c #92CB6F",
"J  c #81D166",
"K  c #82D269",
"L  c #87C175",
"P  c #89C376",
"I  c #81CE75",
"U  c #8CC67A",
"Y  c #8EC97B",
"T  c #93CC75",
"R  c #92CD7E",
"E  c #83D274",
"W  c #85D47A",
"Q  c #95D07F",
"!  c #78B986",
"~  c #76B98D",
"^  c #7DBC8B",
"/  c #78BB94",
"(  c #7BBD9C",
")  c #7EBFA6",
"_  c #7AC186",
"`  c #7EC982",
"'  c #7AC18B",
"]  c #7DC293",
"[  c #7EC39A",
"{  c #8FAF86",
"}  c #8AB385",
"|  c #93B08C",
" . c #84C689",
".. c #84CF8C",
"X. c #94CE81",
"o. c #9CCA8E",
"O. c #87D681",
"+. c #88D785",
"@. c #8AD98E",
"#. c #95D083",
"$. c #96D28B",
"%. c #87C692",
"&. c #85CE92",
"*. c #85C69B",
"=. c #85CD9A",
"-. c #8DCD9D",
";. c #92C690",
":. c #9CC293",
">. c #86D096",
",. c #8CDB96",
"<. c #8EDD9B",
"1. c #98D594",
"2. c #97D599",
"3. c #9AD89C",
"4. c #A1C199",
"5. c #86CDA3",
"6. c #88CAA7",
"7. c #82C3AB",
"8. c #87CBAB",
"9. c #92CFA2",
"0. c #8AD5A3",
"q. c #8DDBA1",
"w. c #8DD9AD",
"e. c #94D9A4",
"r. c #9CDBA5",
"t. c #9CDDAB",
"y. c #85C6B5",
"u. c #87C9B5",
"i. c #87C7BA",
"p. c #88C8BA",
"a. c #89C9BC",
"s. c #8FD4B5",
"d. c #91D5B4",
"f. c #91DDB5",
"g. c #95DBB8",
"h. c #A9C6A2",
"j. c #B8C8B4",
"k. c #91E0A6",
"l. c #94E4AF",
"z. c #9AE3B5",
"x. c #96E3BB",
"c. c #99E3BC",
"v. c #A0E4BE",
"b. c #8AC9C3",
"n. c #8DCBCC",
"m. c #96DBC5",
"M. c #A8D6C1",
"N. c #B4D7C3",
"B. c #96E2C6",
"V. c #9AE3C6",
"C. c #9BE9C4",
"Z. c #9AE4CB",
"A. c #9FEDCE",
"S. c #9EE6D3",
"D. c #9FEBD6",
"F. c #A1E6C2",
"G. c #A3EACB",
"H. c #A5EED4",
"J. c #A3EDDB",
"K. c #A2F0D6",
"L. c #A5F1DC",
"P. c #A8F2DE",
"I. c #8DE7F5",
"U. c #8EE8F5",
"Y. c #93EDF6",
"T. c #97F1F7",
"R. c #98F2F7",
"E. c #99F5FC",
"W. c #A4EEE0",
"Q. c #A5F1E5",
"!. c #A6F2E5",
"~. c #A9F4E3",
"^. c #A9F5E6",
"/. c #AAF7E9",
"(. c #ABF9EE",
"). c #A1F6F6",
"_. c #A4F7F5",
"`. c #A5F8F5",
"'. c #A7F8F4",
"]. c #ADFBF2",
"[. c #ADFCF3",
"{. c #AFFCF3",
"}. c #A8F9F5",
"|. c #ABFAF4",
" X c #A9FAF6",
".X c #ACFBF4",
"XX c #AFFCF4",
"oX c #AEFDF5",
"OX c #AFFDF6",
"+X c #AFFEF9",
"@X c #B0FDF3",
"#X c #B0FDF4",
"$X c #B0FEF7",
"%X c #B0FFF9",
"&X c #B1FFFA",
"*X c #C2CAC0",
/* pixels */
"I.I.I.I.I.I.I.I.I.I.I.I.I.I.I.I.I.I.I.I.I.I.I.I.I.I.I.I.I.I.I.I.I.U.I.I.I.I.I.I.I.I.I.I.I.I.I.I.I.I.I.I.I.I.I.I.I.I.I.I.I.I.I.I.",
"I.I.I.I.I.I.I.I.I.I.I.I.I.I.I.I.I.I.U.I.I.I.U.I.I.I.I.I.I.I.I.I.I.I.I.I.I.I.I.I.I.I.I.I.I.U.I.I.U.I.I.I.U.I.I.I.I.I.I.I.I.I.I.I.",
"I.I.I.I.I.I.I.I.I.I.I.I.I.I.I.I.I.I.I.I.I.I.I.I.I.I.I.I.I.I.I.I.I.I.I.I.I.I.I.I.I.I.U.I.I.I.I.I.I.I.I.I.I.I.I.I.I.I.U.I.I.I.U.I.",
"I.I.I.I.I.I.I.I.I.I.I.I.I.I.I.I.I.I.I.I.I.I.I.I.I.U.I.I.I.I.I.I.U.U.I.I.I.I.U.I.I.I.I.I.I.I.I.I.I.I.I.I.I.I.I.I.I.I.I.I.I.I.I.I.",
"I.I.I.I.I.I.I.I.I.I.I.I.I.I.I.I.I.I.I.I.I.I.I.I.I.I.I.I.I.I.I.U.R.R.Y.I.I.I.I.I.I.I.I.I.I.I.I.I.U.I.I.I.I.I.I.I.I.I.I.I.I.I.I.I.",
"Y.R.Y.I.I.I.I.I.I.I.I.I.I.I.I.I.I.I.I.I.I.I.I.I.I.I.I.I.Y.I.I.U.R.R.Y.I.I.I.I.I.I.I.I.I.I.I.I.I.I.I.I.I.I.I.I.I.I.I.I.I.U.I.I.I.",
"R.R.T.Y.Y.I.I.I.I.I.I.I.I.Y.Y.I.I.I.I.I.I.I.I.I.I.I.U.R.R.Y.U.T.T.R.R.T.I.I.I.I.I.I.I.I.I.I.I.I.I.I.I.I.I.I.I.I.I.U.I.Y.R.Y.I.I.",
"R.R.Y.T.R.T.I.Y.Y.I.I.I.Y.R.R.Y.I.I.I.I.I.I.I.I.I.I.I.R.R.R.E.R.R.R.R.R.U.I.T.Y.I.I.U.I.I.I.I.I.I.I.I.I.I.I.I.U.I.I.U.T.R.T.T.Y.",
"R.T.R.R.T.T.U.R.R.I.Y.T.Y.R.R.Y.U.U.I.I.I.I.I.I.U.I.Y.R.R.R.R.R.T.R.R.Y.Y.R.R.R.U.I.I.I.I.I.I.I.U.I.U.U.I.I.I.I.I.U.Y.Y.R.R.R.R.",
"R.R.R.T.R.R.R.R.R.R.T.R.R.R.R.R.T.T.U.I.I.I.I.Y.R.Y.T.R.R.T.R.R.R.R.R.R.R.R.R.T.Y.T.U.I.I.I.I.Y.R.Y.T.R.U.I.I.I.I.T.R.R.R.R.R.R.",
"R.R.R.R.R.R.R.R.R.R.T.R.R.R.R.R.T.R.Y.I.I.I.I.R.R.R.T.T.R.R.R.R.R.R.R.R.R.T.R.T.T.R.Y.I.I.I.U.R.R.R.T.R.Y.I.Y.I.U.Y.E.R.T.R.T.R.",
"T.R.R.R.R.T.T.R.R.R.R.R.R.R.R.R.T.Y.I.I.Y.U.I.U.T.R.R.R.T.R.R.T.R.R.R.R.R.R.R.T.T.T.Y.I.I.Y.Y.U.T.R.T.T.U.Y.E.Y.I.U.R.R.R.R.R.R.",
"R.R.T.R.R.R.T.R.R.R.R.R.R.R.R.R.T.Y.Y.T.R.T.Y.T.R.R.R.R.R.R.R.R.R.R.R.R.R.R.R.R.R.Y.I.I.U.R.R.Y.Y.T.T.T.R.R.R.R.Y.T.R.R.R.T.R.R.",
"R.R.R.R.R.R.R.R.R.R.R.R.R.T.R.R.T.R.R.R.R.R.R.R.R.R.R.T.T.R.R.R.R.T.T.R.R.T.R.R.R.Y.Y.T.T.R.R.R.T.T.R.R.R.R.R.R.T.R.R.T.R.R.R.R.",
"R.R.R.R.T.R.R.R.R.R.R.R.R.R.T.R.R.R.R.T.R.R.R.R.T.R.R.R.R.R.T.R.R.T.R.R.R.R.R.R.R.T.R.T.T.R.R.R.T.R.R.T.R.R.R.R.R.R.R.R.T.R.R.T.",
"T.R.R.T.R.R.R.R.R.R.R.R.R.R.R.R.R.R.R.R.R.R.T.T.R.R.T.R.R.R.R.R.R.R.R.R.R.T.T.R.R.R.R.R.R.R.T.R.R.R.R.R.R.R.R.T.R.R.R.R.R.R.R.R.",
"R.R.R.R.R.R.R.R.R.R.R.R.T.R.R.T.R.R.R.R.R.R.E.).R.R._.T.T.T.R.R.T.R.T.R.T.T. X_.R.R.R.R.R.R.R.R.R.R.T.R.R.T.R.R.R.R.R.R.R.R.R.R.",
"R.R.R.R.T.T.R.T.R.R.R.R.R.R.R.R.R.R.R.R.Y.).@X{.). X#X XR.T.T.R.R.R.R._.)..X@X@XR.T.T.R.R.T.R.R.R.R.R.R.R.R.R.R.R.T.R.R.T.R.T.R.",
"R.T.T.R. X`.R.R.R.R.R.R.R.T.R.R.R.R.R.R.R.`.{.{. X].#X#X@X_.R.Y.R.R. X@X].).#X XR.R.R.R.R.R.R.R.R.R.R.T.R.R.R.R.R.R.R.R. X#X_.T.",
"T.E.R.`.@X@XR.T.R.T.R.R.R.R.R.R.R.T.R.).{.T..X.X.X#X.X.X#X X_..X).Y._.#X#X.X#X.X].).R.T.R.R.T.R.T.R.R.R.R.R.T.R.R.R.T.R..X.XoX).",
").@X.X.XoXoX`. X XR.R.R.R.R.R.R.R.R.R.{.{.oXoX.X#X.X#X.X#X X.X#X]._.R. X#X.X.X#X#X_.T.R.R.R.R.R.R.R.R.R.R.R.R.R.T.R. XT._.].#X#X",
"_.@X.X].oX{.{.{.@X_.R.R.R.R.R.R.R.R.R. X.X.X.X{..X#X.X#X.X.X#X.X X@X].{.#X.X#X.X).R.R.T.R.R.R.R.R.R.T.R.T.R.T.T.R..X@X X X@X#X.X",
" XoX@XoXoX.XoX{. XR.R.R.R.R.R.R.R.R.R.R.T.{.oX{.#X.X#X.X#X.X.X#X#X.X#X.X.X#X#X.X)..X#X).T.R.R.R.T.T.). X).T.T.T.). X.X#X.X#X.X#X",
"oX{.oX X{.oX{.oXoX`.R.R.R.R.R.R.R.R.R.R.@XoX.XoX.X#X.X#X.X#X#X.X.X#X.X#X#X.X#X.X#X#XoX XT.R.R.R.R.R.@X#X{.T.T. X]._.#X.X#X.X#X.X",
".X{. X@X.X{.oXoX{. XR.R.R.T.T.R.{.#X_.`.oXoX{..XoX.X{.{..X#X.X#X#X.X#X.X#X.X#X.X@X.X XT.T.T.R.R.T.T._..X.X_._.#X.X#X.X#X.X#X.X#X",
"oXoX#X{.oX.XoX{._.R.Y.R.R.).R.R.oX{.oX@X{.{.oXoX.X{.oXoX#X.X#X.X.X#X.X#X.X#X.X#X%XP.Z.T.T.R.R.R. X X_.#X#X#X#X.X#X.X#X.X#X.X#X.X",
"{.oXoX{.@X{. XR.R.R.R.R.).@X.X)..X.XoX.XoX%X~.F.F.+X.X.X.X#X.X#X#X.X#X.XoX@X@XoXv.r.$.g.R.T.T._.@X@X#X.X.X#X.X#X.X#X.X#X.X#X.X#X",
"oX{.@X X X{.`.R.R.R.@X.X`.{.oX.X{.oX{.oX~.H.F.S G.+X{.{.#X.X#X.X.X#X.X#X{.{. X{.1.T X.r.^.E.T.R.#X.X#X.X#X.X#X.X#X.X#X.X#X.X#X.X",
" X@X X@X{.oX@X@X). X{.oX.X{.oX.XoXoX X#XL.R $.#.F.{..X#X.X#X.X#XoX.X@X.X XoXoXF.1.X.#.#.H.!.}. X.X#X.X#X.X#X.X#X.X#X.X#X.X#X.X#X",
"oX{.{.oX{.oXoX{.@X{.{..X{..XoXoX{..X%XG.r.o.Q R 3.{.%X.X#X.X#X.X.X@X.X@X@X{.~.r.#.X.X.$.2.2.].#X#X.X#X.X#X.X#X.X#X.X#X.X#X.X#X.X",
"{.{.oX{. XoX{.@X.X@X.X@X{..X.X{.oXoXH.G.H #.#.Q $.C.~.#X.X#X.X#X@X.XoX.X{./.X.#.X.X.Y T T z.#XoX#X.X.X#X.X#X.X#X.X#X.X#X.X#X.X#X",
"oX.XoX.X@X{.oX X@X.X@X.X{.oXoXoX{.oXr.#.$.#.R Y U T ~.#X#X.X#X.XoX@X@X.X%XG.R X.X.Y X.#.#.R c.{..X].#X.X#X.X#X.X#X.X#X.X#X.X#X.X",
"#X.X#X.XoXoXoXoXoXoXoX{.oXoX.X{.@X^.$.U R #.X.Q X.X.H.#X{.oX.X#XoXoX.XoX!.F.$.U U R #.X.#.#.#.H.#XoX X@X X@X{.oX X@X X@X{.oX.XoX",
".X#X.X#X.XoX].{..X{..XoX.X{..X{.%X^.X.R X.R X.X.$.F.t.^.oXoX#X.X#X.X{.+XL.X.#.X.#.X.X.#.X.X.#.$./.@X{.oX{.oXoX{.oX{.{.oXoX{.oX{.",
"#X.X#X.X{..XoX.X{.oX{..X{.oX.X%XZ.r.$.X.X.P Y X.$.$.1./.#XoX.X#X.X#X.X{.^.t.T R X.X.X.R L Y U 2.{.{. X@X{.oXoX#X{.{.oX{..XoX.X{.",
".X#X.X#X.X#X{.oX.X{.oXoX.X{.@X{.!.e.T #.X.P C Y X.R #.J.@X X#X.X#X.X#X%X-.Z Z C P X.X.P p t -.J..X{.oX{.@X X{.{.oX.XoX.X#X].oXoX",
"#X.X#X.X{..XoX.XoX.XoX{.oX{..X.X#XG.Z X.Z C C U R P Z -.]..X.X#X.X{.#XV.9.t u u u P U C p Z 8 d.+X{.{.oX.X{. X@X{.oXoX.X.X#X.X#X",
".X#X.X#X.XoX{.oXoX{..XoXoX X{.{.^.%.Z u u C C C C Z C %.!.oX#X.XoX{.%Xd.8 u q u C Z C C u t Z ~..X{.oX.XoXoX{.oX X{.oX{.#X.X#X.X",
"#X.X#X.XoX{.oX{.oX{.oX{.oX{.oX(.8.} t q t Z C u q r C 9.Z.%X XoX{.oXW.^ q 2 2 u C u u u q > Z *.!.oXoXoX.X{. XoX@X{.oXoX.X#X.X#X",
".X#X.X#XoX{..XoX.XoX.X{.oX{.oXD.+ + q 2 3 u u 3 2 0 + B.%X.X@XoX#X%XJ.f w 2 2 t C r 3 3 < <   ^ .XoXoXoX{.oX@X{.{.oX.X{.{..X#X.X",
".X#XoX@XoX X{.{.{.{.%XP.(.oXoX!.m.w > > q s > < > 6.H.S.#X.XoX+XD.B.%X].!   > 2 3 + 2 < q a *.s.+X{..X.X.X{.oXoX.XoX{.oXoXoX{.{.",
"#X].oX%X{.{.+X{.%XoXK.@.x.l./.%XH.6 a q M.} 1 w > f J.%XJ.0.&XZ.y x.J.Z.^ d.^ o { { > < < d.%X{.(.+X@X+X{.+XoX@X(..X%X^.L.+X+X.X",
"c.<.K.G.q.g..XJ.x.C.+.W W +.<.,.K @.0.9.N.:.;.s 4 5.B f. .9 g.q.& ` - y A.<. .o | h.@ N ^ N l.<.W C.+XB.J.Z.@X(.e.L.L.k.l.(.C./.",
"z v @.M j n V 5 B K J J b E K z J K J v X.*Xo.N M - 5 & - 9 & 5 9 : 9 9 E z v l ;.j.o.K O.K D D E ,.w.n ` n q.O.E O.@.z E W z ,.",
"K M x x x 7 7 k 9 m m M J F K K K K K l G j.x M M 9 9 x 9 7 9 x c x 9 9 m K K l 4.j.k F D J K K K m - k 7 9 z M m l x n M J K b ",
"c x x x x 5 x J M 9 9 9 m K J K F J K x C j.5 7 9 5 n M m x 9 9 m x 9 9 9 m F % 4.4.h n m J J J J J n 9 x J K M m x c M c J J K ",
"x m M J x x x 5 x 9 x c M F K K J K M 5 @ A , = x M M J M M x m x 7 9 9 9 x M c N N c M m J K M x 9 9 9 9 x c M K K M M M J J J ",
"K K J K M m c x x m M J F J 5.=.D K x x c * 4 5 M K E E E M M K M x x x 9 9 x m v v x K K J K J 9 7 x c 9 7 7 M J J J M K K J J ",
"J K J J J F J J m J D K &.8.p.u.J J c c x 9 9 9 M M ..&...K K J K M M K x 9 9 7 x M M M M K J M m 9 m K M x x K K K J J J J M K ",
"K J K J K K K b E ..5.p.b.p.0.B c K M x 7 c m x 9 m J J K K J J J M J J M x 9 9 9 x x 7 x M K J K M F F M J M M J J J J M M x M ",
"m K J J c m M E =.b.b.&.p.E z x 9 x x 9 9 x m x 9 7 c c x m M K K J J M x 7 9 9 9 9 7 x c M J J m c c M K K K F K J J M x 9 9 x ",
"c J M c x M J K O...5.7...v n 9 9 9 7 9 7 5 9 9 9 x 7 9 9 9 m M c M c x x 9 9 x 9 7 9 9 x x J K F m F K J K M M M K v x 9 9 9 7 ",
"x 7 c 9 9 M K J D v I >.I l 9 9 9 9 9 9 @ 4 5 9 9 9 9 9 9 9 9 9 9 x x 9 9 9 9 4 4 4 9 9 9 9 m J K K J J K F 7 9 M M x 7 9 9 9 9 ",
"9 9 9 9 x m x c M 9 c v c 7 9 9 9 5 9 5 5 @ , 4 4 5 @ 4 4 5 9 9 9 7 9 9 9 9 7 5 4 5 9 9 9 9 x M F F J F v 9 B 7 x x x M M 7 9 7 ",
"9 x 9 9 9 9 9 9 x 9 9 9 x 9 9 9 9 5 @ @ @ @ @ @ @ @ @ @ @ 5 7 9 9 9 4 5 9 9 5 4 9 x 9 7 9 9 9 x 9 c M k 9 ' y.! 5 x M M M c 9 x ",
"9 9 9 7 7 7 5 7 7 9 9 9 m F m x 9 9 5 4 @ @ 4 * = 5 4 @ @ @ 5 5 4 4 @ @ 5 9 9 7 9 5 4 4 7 9 9 9 9 7 i 7.a.i.a.*.j K K K K J M M ",
"9 9 9 5 @ , * 5 7 9 9 9 9 x n M x 9 7 4 @ @ , @ 7 9 @ @ @ @ 4 4 @ @ @ 4 5 9 9 9 9 4 @ @ @ 5 7 5 9 7 i 7.a.] g i c J J J K K M J ",
"4 5 4 @ @ @ @ @ 5 9 9 9 9 9 9 c n 9 7 4 @ @ @ 4 7 7 @ @ 4 4 = @ @ 4 5 9 x 9 9 9 9 9 @ 4 5 @ 4 @ 4 9 9 7 y y k 7 x M J J J J J K ",
"@ @ @ 4 @ 4 7 * 5 7 9 9 9 9 9 9 9 9 9 7 4 @ @ 9 9 , 4 i _ y 9 5 4 7 9 9 9 9 9 9 5 7 9 5 9 @ @ ~ 1 # 9 4 5 = 4 5 x x M K K K J K ",
"@ 4 5 4 @ 4 5 9 5 7 9 7 9 7 4 7 9 9 9 9 9 5 7 7 : [ a.a.y.] 5 5 9 9 9 9 9 9 7 4 4 @ * @ @ 4 ) i./ d . @ @ @ @ @ 4 7 M M K M M J ",
"@ @ 5 , o @ 6 * , , 5 7 5 , @ 4 7 7 9 9 9 7 9 9 : g 7.! e 6 # @ 7 7 9 9 9 x 7 4 @ @ @ , X ~ n.b.b.7.( = 4 4 @ @ 5 9 7 x M x x J ",
"5 5 O g 7.) ~ 1 - 7 5 9 - O @ @ 4 9 9 4 4 4 9 9 9 4 & $ = = * 5 7 x 9 9 9 9 9 7 4 4 4 @ = V y.y.n.b.i.] - 4 @ @ 9 9 9 9 x 7 x c ",
"* 9 n *.~ b.b.d e $ @ O d d O @ 7 9 9 4 7 7 9 9 9 9 7 9 x 5 4 x 9 9 9 9 9 9 9 9 9 5 9 9 5 = 9 y _ d d ~ O 5 @ @ = 5 9 9 7 x 7 7 ",
", f y.b.y.a.b.i.) ( d ) b.( X 4 9 9 9 9 9 9 9 9 9 9 9 9 9 9 9 9 9 9 9 9 9 9 9 9 9 9 9 9 7 @ @ * X O @ @ @ @ @ @ @ 4 5 9 9 9 9 9 "
};
