/* XPM */
static char *_0b1783bf4e3456c9f8267abc06183023dd3gvOtyKTMLNyo[] = {
/* columns rows colors chars-per-pixel */
"64 64 145 2 ",
"   c #005D3E",
".  c #19664A",
"X  c #176A4B",
"o  c #186D58",
"O  c #1C7151",
"+  c #22654C",
"@  c #246A51",
"#  c #366A56",
"$  c #23775A",
"%  c #2D7259",
"&  c #34765E",
"*  c #3E7661",
"=  c #357D61",
"-  c #3B7C63",
";  c #6D7059",
":  c #427562",
">  c #427C66",
",  c #457E69",
"<  c #4E7E6E",
"1  c #557D6F",
"2  c #537D71",
"3  c #B1652E",
"4  c #937152",
"5  c #A46E4D",
"6  c #9D7761",
"7  c #39876B",
"8  c #45836B",
"9  c #4B856F",
"0  c #47886F",
"q  c #4D8671",
"w  c #4D8A73",
"e  c #538473",
"r  c #528B76",
"t  c #598977",
"y  c #5A8779",
"u  c #548E79",
"i  c #53917A",
"p  c #59937D",
"a  c #63897C",
"s  c #69897E",
"d  c #798271",
"f  c #5E9582",
"g  c #5E9B84",
"h  c #679284",
"j  c #6A9487",
"k  c #669688",
"l  c #6D9488",
"z  c #709187",
"x  c #74958C",
"c  c #7A978E",
"v  c #72998D",
"b  c #739B91",
"n  c #7B9C93",
"m  c #64A28B",
"M  c #74A195",
"N  c #79A197",
"B  c #7CA39A",
"V  c #819C95",
"C  c #849E98",
"Z  c #8A9D9A",
"A  c #949B9C",
"S  c #82A59D",
"D  c #8DA39E",
"F  c #979FA0",
"G  c #989FA0",
"H  c #83A7A2",
"J  c #84AAA3",
"K  c #8AADA6",
"L  c #95A2A2",
"P  c #9DA5A6",
"I  c #96A8A6",
"U  c #9BA9A6",
"Y  c #9EA7A8",
"T  c #9EA9A9",
"R  c #8CB3AB",
"E  c #91B3AD",
"W  c #94B7B1",
"Q  c #9CB4B1",
"!  c #95BAB4",
"~  c #9CBEBB",
"^  c #A2ABAD",
"/  c #BCB5AB",
"(  c #A4AFB1",
")  c #A6B1B3",
"_  c #A6B5B6",
"`  c #A8B2B5",
"'  c #A8B3B5",
"]  c #AAB3B7",
"[  c #AAB4B7",
"{  c #A9B6B7",
"}  c #A5B9B5",
"|  c #ABB5B8",
" . c #A8B6B8",
".. c #AAB7B9",
"X. c #ABB9BB",
"o. c #ABBABC",
"O. c #ACBBBD",
"+. c #AFBCBF",
"@. c #9DC2BD",
"#. c #9FC2BE",
"$. c #9CC4BE",
"%. c #A2C4BF",
"&. c #ABBEC0",
"*. c #AEBFC0",
"=. c #A2C5C0",
"-. c #A3C5C4",
";. c #AEC3C4",
":. c #A5CBC7",
">. c #A6CAC6",
",. c #AFC7C8",
"<. c #A4CACA",
"1. c #ABCECB",
"2. c #A9CECE",
"3. c #AECFCC",
"4. c #B1C3C5",
"5. c #B3C5C6",
"6. c #B4C7C8",
"7. c #B3CBCC",
"8. c #B9CECF",
"9. c #ADD0CD",
"0. c #B0D0CE",
"q. c #ADD1D1",
"w. c #B2D5D5",
"e. c #B4D6D4",
"r. c #BBD3D3",
"t. c #B6D8D7",
"y. c #BFD7D8",
"u. c #B6D9D9",
"i. c #BADCDC",
"p. c #BFE0E0",
"a. c #C2DCDC",
"s. c #C3DDDD",
"d. c #C1E0DF",
"f. c #C4E4E4",
"g. c #C5E5E5",
"h. c #C8E3E4",
"j. c #C9E6E6",
"k. c #C9E8E7",
"l. c #CBE7E8",
"z. c #CCEBEB",
"x. c #CDECED",
"c. c #CEEDED",
"v. c #CDEEEE",
"b. c #D0EFEF",
"n. c #D1F1F1",
/* pixels */
"A A A A A A A A A A A A A A A A A A A A A A A A A A A A A A A A A A G A A A A A A A A A A A A A A A A A A A A A A A A A A A A A ",
"A A A A A A A A A A A A A A A A A A A A A A A A A A A A A A G G G G P P A A A A A A A A A A A A A A A A A A A A A A A A A A A A ",
"A A A A A A A A A A A A A A A A A A A A A A A A A A A A A A G ^ P P P P A A A A A A A A A A A A A A A A A A A A A A A A A A A A ",
"A A A A A A A A A A A A A A A A A A A A A A A A A A G G A A P P P P P G A A A A A A A A A A A A A A A A A A A A A A A A A A A A ",
"A A A A A A A A A A A A A A A A A A A A A A A A A G P ^ P P P P P P P G G G A A A A A A A A A A A A A A A A A A A A A A A A A A ",
"A A F A A A A A A A A A A A A A A A A A A A A G P P P P P P P P P P P P P P A A A A A G A A A A A A A A A A A A A A ^ G A A A A ",
"A A Y P A A A A A A A A A A A A A A A A A A A G P P P P P P P P P P P P P P A G A A A A A A A A A A A A A A A A A P P U G G G G ",
"F P P P F A A A A A A A A A T L A A A A A A A G P P P P P P P P P P ^ P P P P P A A A A A A A A G ^ A A A A G A G P P P P P P P ",
"P P P P P P A A A A A A A A A A A A A A A A A P ^ L P P ^ P P P P P ^ P P P P P P A A A A A A A A A A A A P P P ^ P P P P P P G ",
"P P P P P P G A A A A A A A A A A A A A A A A ^ A ^ P P P P P P P ^ P P P P P P G G A A G A A A A G A A G P P P P P ^ P P P P P ",
"P P P P P P A G P A A A A A A A A A A A A A P ^ ^ P P P P P P P P P P P ^ P P P P P G P P A A A P P G G P G G P P P P P ^ P P P ",
"P P P P P P P P P P A A A A A A A A A G G A A ^ A ^ P P P P P P P P P P P P P P P P P P ^ G A G P P P P P P P P P P P P P P P P ",
"P P P P P P Y P P A A F A A A A A A G ^ ^ A ^ ^ ^ ^ A ^ P P P P P P P P P P P P P P P P P P A G P P P P P P P P P P P P P P P P ",
"P Y Y P P P P P P P F P P A G A A A A P G P G A ^ A ^ ^ P P ^ P P P P P P P P P P ^ ^ ^ ( ( ^ P P P P P P P P P P P P P P P P P ",
"P P P P P P P P P P P P P P Y P A A A A ^ G ^ ^ ^ A A ^ P P P P ^ ^ P P P P P P ^ ] ( ^ ( ' ( ^ P ^ ^ P P P P ^ P P P P P G P P ",
"P P P ^ P P P P P P P P P P P G A G ^ ^ G ^ A ^ A ^ ^ A U P P P ( ] ( ^ ( ^ P P ^ ( ' ( ] ( ' ( ( ( ' ^ P P P ^ ^ P P ^ P ^ P P ",
"P P ^ ^ P P P P P ^ ^ P P P P G G P Y P P P ^ P ^ P P P P P P P ( ) ) ) ' ' ^ ^ ^ ) ) ) ) ) ) ) ( ( ( ^ ^ P P P P P P P P ^ G ^ ",
"P P P P ^ ) ^ P ^ ) ) ^ P P P P P P P P P P P P P P P P P P P ^ ^ ( ) ) ) ( ) ' ) ) ) ) ) ) ) ) ' ( ( ( ^ P P P P P P P P P ^ G ",
"P P P ^ ) ) ( P ^ ) ) ^ ^ ^ ^ P P P P P P P P P P P T ) ) ^ ^ ) ^ ) ) ) ) ) ) ' ..( ) ) ) ) ) ) { ( ' ( ( ^ ^ U P P P ^ ^ ^ G ^ ",
"^ ^ ( P ^ ) ) ^ ) ) ) ) ( ) ) P Y P P P P P P P P ( ) ) ) ) ^ ) ) ) ) ) ) ) ) ' ' ) ) ) ) ) ) ) ( ( { ( ( ( ' ^ P P P ^ ' ( ^ G ",
"^ ) ) ) ) ) ) ) ) ) ) ) ) ) ) ( ) ^ P P P P P P ^ ` ) ) ^ T ^ ) ) ' ) ) ) ) ) ) ) ) ) ) ) ) ) ) ) ) ) ) ) ) ) ^ ^ ) ( ^ ( ( ^ P ",
") ) ) ) ) ) ) ) ) ) ( ) ) ) ) ) ) ) P ^ ) ^ Y ^ P ^ ) ) ) ) ^ ) ^ | ) ) ) ) ) ) ) ) ) ) ) ) ) ) ) ' ) ) ) ) ^ ^ ( ) ' ( ' ( ' ( ",
") ) ) ) ) ) ) ) ) ) [ [ ) ) ) ) ) ( P ) ' ) P Y P ^ ) ) ) ) ) ) ) ) ) ) ) ) ) ) ) ) ) ) ) ) ) ) } ) ) ) ) ) ( ( ( ( ( ' ) ) ( ) ",
") ) ) ) ) ) ) ) ) ) ..[ ) ) ) ) ) ) ) ) ) ^ P P ^ ) ) ) ) ) ) ` ) ) ) ) ) ) ) ) ) ) ) ) ) ) ) ) ( ' ) ) ) ) ) ) ) ) ' ) ) ) ) ) ",
") ) ) ) ) ) ) ) ) ) ) ) ) ) ) ) ) ) ) ) ) ) ) ^ ^ ) ) ) ) ) ) ) ^ ) ' ) ) ) ) ) ) ) ) ) ) ) ) ) ) ) ) ) ) ) ( ) ) ) ) ) ) ) ) ) ",
") ) ) ) ) ) ) ) ) ) ) ) ) ) ) ) ) ) ) ) ) ) ) ) ) ) ) ) ) ) ( [ 5.s.%.^ ) ) ) ) ) ) ) ) ) ) ) ) ) ) ) ) ( { { ' ) ) ) ) ) ) ) ) ",
") ) ) ) ) ) ) ) ) ) ) ) ) ) ) ) ) ) ) ) ) ) ) ) ) ) ) ) ) ) ( +.b.c.h.' ' ) ) ) ) ) ) ) ) ) ) ) ) ) ) ) ( { { ( ) ) ) ) ) ) ) ) ",
") ) ) ) ) ) ) ) ) ) ) ) ) ) ) ) ) ) ) ) ) ) ) ) ) ) ) ) ( ) ^ @.>.M $.Q ^ ' ) ) ) ) ) ) ) ) ) ) ) ) ) ) ) ) ( ) ) ) ) ) ) ' ) ) ",
") ) ) ) ) ) ) ) ) ) ) ) ) ) ) ) ) ) ) ) ) ) ) ) ) ) ) ) ) T h m m g g p L ' ) ) ) ) ) ) ) ' ) ) ) ) ) ) ) ) ) ) ) ) ) ) ) ) ) ) ",
") ) ) ) ) ) ) ) ) ) ) ) ) ) ) ) ) ) ) ) ) ) ) ) ) ) ) ) [ T %.$.u p g p D ) ) ) ) ) ) ) ) ) ) ) ) ) ) ) ) ) ) ) ) ) ) ) ) ) ) ) ",
") ) ) ) ) ) ) ) ) ) ) ) ) ) ) ) ) ) ) ) ) ) ) ) ) ) ) ) ) c W @.w u p u v ^ ) ) ) ) ) ) ) ) ) ) ) ) ) ) ' ( ) ) ) ) ) ) ) ) ) ) ",
") ) ) ) ) ) ) ) ) ) ) ) ' ) ) ) ) ) ) ) ) ) ) ) ) ) ) ) V p i w g 0 w p r V [ ) ) } { ) ) ) ) ) ) ) ) ) ) ) ) ) ) ) ) ) ) ) ) ) ",
") ) ) ) ) ) ) ) ) ) ) ) ) ) ) ) ) ' ..) ) ) ) ) ( ' ` ' n q r q r B 9.K & V ) ) ( ' ( ) ) ) ) ) ) ) ) ) ) ) ) ) ) ) ) ) ) ) ) ) ",
") ) ) ) ) ) ) ) ) ) ` ) ) ) ) ) ) ' ' ( ) ) ) ) ' ( ( C C r r w u 1.9.R w p x ) ) ) ` ) ) ) ) ) ) ) ) ) ) ) ) ) ) ) ) ) ) ) ) ) ",
") ) ) ) ) ) ) ) ) ) ) ) ) ) ) ) ) ) ( ` ) ) ) ) ` ` ..l 7 q i w 0 0 0 p r w n ( ) ' ) ) ) ) ) ) ) ) ) ) ) ) ) ) ) ) ) ) ) ) ) ) ",
") ) ) ) ) ) ) ) ) ) ) ) ) ) ) ) ) ) ) ) ) ) ) ) ( L C x b J M ! %.R & 9 M d.$.D [ ( ) ) ) ) ) ) ( ) ) ) ) ) ) ) ) ) ) ) ) ) ) ) ",
") ) ) ) ) ) ) ) ) ) ) ) ) ) ) ) ) ) ) ) ) ) ) ( _ D $ q 9.w.f.v.>.h 0 & S @.c ^ ' ( ` ) ) ) ) ` o.) ) ) ) ) ) ) ) ) ` ) ) ) ) ) ",
") ) ) ) .._ ( ) ) ) ) ) ` ` ) ) ) ) ) ) ) ) ) ` ` k i q w w B M & 7 u u 7 O w j ^ ` ` ( ) ) ) ) _ ) ) ) ) ) ) ) ) ` ` ) ) ) ) ) ",
") ) ) )  . .) ) ) ) ) ) ` ( ` ( ` ( ) ) ) ) ( ` U a q - 9 @ O X w N > & 9 N & % I ..( ) ) ) ` ) ) ) ) ) ) ) ) ) ) ) ) ) ) ) ) ) ",
") ) ) ) ( ) ) ) ) ) ) ) ` ( ` ` ` ' ) ) ) ) ` ' x 1 : h n W R n S k.0.S r.k.K 1 c C ` ) ) ) ) ) ) ) ) ) ) ) ) ' ) ) ) ) ) ) ) ) ",
"( ) ' ' ) ( ) ) ( ( ( ) [ ( ` ( ( ^ ) ) ) ) ' L l > > n 2.! @.k t p N e.n f J > a I ' ' ' ' ' ) ` ( ^ ) ) ) ) ( ` ) ( ( ' ^ ) ) ",
"X.( ^ ( ' ' ..) ( +.6.X.( ' ( ( o.7.X.) ^ ) ] n = - - q 8 = - , 8 9 8 & - O = r y s ^ ( ^ ) ^ ` ^ X.;.) [ ^ X.6.T ` X.^ ` X.) X.",
"l.s.r.;.7.w.3.7.+.%.w.1.5.o._ 8.6.j.v.5.X.X.) Z 2 v H , * q r e , & r , y ~ E @ @ J ;.5.;.' ,.7.X.w.w.w.X.r.i.a.6.a.j.r.s.a.4.x.",
"v.v.f.f.p.i.w.u.i.e.e.u.w.i.t.s.z.v.v.l.j.j.1.  f l.=.+ * @ : % o @   c 1.W x e . j H i.w.w.i.u.u.u.d.i.a.v.n.f.v.v.x.j.z.z.j.v.",
"z.z.v.v.p.t.i.i.u.u.u.u.i.u.l.b.k.i.f.z.b.z.u.n z < : K E b %.; 4 d b e t S -.K # 2 2.u.u.i.u.i.h.p.p.v.k.k.f.f.f.f.b.z.f.l.v.v.",
"z.x.x.j.f.f.f.i.t.f.f.i.f.z.l.z.k.f.b.b.z.f.i.f.H K <.p.1.u.y.5 3 / b.K n f.n.j.f.-.f.i.u.u.i.j.l.z.z.v.l.s.u.i.i.i.z.l.i.f.z.b.",
"v.z.x.x.x.v.f.f.f.z.j.l.j.v.v.v.b.v.z.l.f.u.u.i.w.p.i.q.<.w.~ 6 5 ' 9.9.i.p.v.v.v.v.b.j.f.u.i.v.z.z.v.z.v.f.f.z.b.f.j.z.b.b.z.z.",
"b.z.x.x.x.v.z.f.z.v.v.l.v.v.b.l.f.f.v.i.u.u.u.u.p.p.w.i.i.q.q.-.^ >.>.t.j.v.f.f.x.z.z.x.l.z.z.b.v.b.z.z.b.z.z.v.v.z.z.b.z.l.f.z.",
"f.j.v.z.f.k.v.z.f.v.v.z.z.v.f.i.f.t.i.u.u.u.u.p.z.f.f.f.v.f.i.i.u.w.u.f.z.k.p.p.z.v.f.u.f.p.f.v.z.z.l.v.v.j.z.j.j.z.v.j.j.i.i.k.",
"f.j.l.f.u.f.v.z.f.z.v.z.v.k.i.u.u.u.u.u.u.u.f.f.v.v.x.x.v.v.v.x.f.v.f.i.i.i.i.p.f.z.p.u.w.u.f.z.z.s.p.k.v.v.f.f.u.z.f.i.i.u.u.p.",
"k.b.j.u.i.f.k.v.z.v.f.i.f.l.i.u.i.u.i.u.u.u.f.v.z.z.x.x.z.i.p.f.f.v.z.f.u.i.i.f.z.f.v.f.p.p.j.v.f.u.u.u.p.k.i.u.i.i.u.u.w.u.u.u.",
"k.f.f.u.u.i.f.i.f.l.d.u.f.p.u.u.u.u.q.w.u.u.u.i.z.z.v.x.x.f.z.g.z.v.v.z.f.i.w.i.p.i.k.z.v.v.v.v.i.u.u.u.i.i.u.u.u.q.2.q.2.u.u.u.",
"i.u.i.i.u.u.u.u.f.i.u.u.u.w.u.u.i.u.<.2.u.u.u.i.f.x.g.b.v.x.v.v.z.z.z.f.i.i.i.i.i.u.i.z.f.z.f.f.u.u.u.u.q.q.q.u.2.u.q.<.<.2.q.w.",
"u.u.q.i.u.i.u.u.u.u.i.q.<.<.q.w.q.2.<.<.q.u.u.u.u.p.p.z.z.f.p.g.z.z.f.i.u.w.q.u.u.u.i.z.p.u.i.i.u.u.q.9.<.<.<.<.<.q.2.<.<.<.<.2.",
"w.q.<.q.q.u.i.u.u.u.i.u.u.<.<.<.<.2.<.<.q.w.u.u.u.i.f.g.i.i.u.i.f.f.u.u.i.w.q.q.u.u.i.i.u.u.u.u.u.u.i.u.u.u.<.<.<.<.<.w.u.u.q.<.",
"<.<.<.<.w.i.u.u.u.u.u.i.w.<.<.<.q.w.<.<.<.<.q.u.u.u.i.u.9.q.i.q.i.i.w.i.w.i.i.w.i.i.i.w.u.u.p.u.u.u.t.u.u.w.<.<.2.<.<.2.<.q.2.<.",
"<.u.2.<.q.u.w.2.w.u.u.u.u.q.q.<.<.<.<.<.<.2.u.u.u.u.u.q.<.2.w.i.u.u.u.u.i.w.<.q.u.u.u.u.p.p.k.p.p.p.p.p.u.u.w.w.u.2.<.2.<.<.q.2.",
"2.2.<.<.<.<.2.<.2.w.i.u.u.w.i.q.<.<.<.2.u.q.i.i.i.u.i.q.<.<.w.2.w.w.u.u.w.q.<.2.w.u.u.p.v.v.z.z.p.v.v.p.u.u.u.i.u.q.<.q.u.<.<.<.",
"<.<.<.q.<.<.<.<.q.u.u.u.u.i.i.u.q.<.2.u.u.u.q.q.u.q.q.<.<.<.2.2.<.q.w.u.2.<.<.q.u.u.i.p.p.u.p.p.v.z.p.p.p.u.u.u.u.u.q.w.w.q.<.<.",
"<.<.<.q.<.2.q.2.w.u.u.i.q.2.q.q.u.u.w.u.i.q.q.u.u.q.<.w.<.q.u.q.<.<.q.w.w.q.<.<.<.w.i.u.w.u.u.i.u.u.z.p.u.u.i.i.u.w.u.u.u.u.q.<.",
"q.<.<.<.q.i.u.u.u.u.u.i.w.<.<.<.w.u.u.u.u.u.u.u.u.q.<.<.<.2.w.q.<.<.2.u.q.<.<.<.<.q.w.u.u.u.q.w.u.u.u.p.u.u.u.q.2.2.u.u.u.u.i.u.",
"w.u.<.<.<.w.q.<.<.w.u.u.i.q.2.<.<.q.u.u.u.u.u.q.<.<.<.<.<.<.<.q.<.<.2.<.q.2.<.w.q.<.q.u.u.q.<.<.w.u.u.u.u.i.q.w.<.<.q.q.u.u.u.u.",
"<.2.2.<.<.<.<.<.<.2.2.u.w.i.w.2.q.u.u.i.i.u.u.q.<.<.<.<.<.<.<.<.<.<.<.q.q.q.u.q.<.<.<.2.2.<.<.<.q.u.u.u.u.u.i.u.q.u.u.u.u.u.u.u.",
"<.<.<.<.<.<.<.<.<.<.2.q.2.u.u.u.i.u.u.u.u.u.u.u.q.<.<.<.<.<.<.<.<.<.<.<.<.<.<.<.<.<.<.<.<.<.<.<.q.u.i.u.u.u.u.u.i.u.u.i.u.i.u.u."
};
