/* XPM */
static char *d999b996fcff408df805664ea63809021Phl7XR8pKVOVuyt[] = {
/* columns rows colors chars-per-pixel */
"64 64 207 2 ",
"   c #7C7B6C",
".  c #BC4400",
"X  c #BB4C00",
"o  c #AA5007",
"O  c #B95400",
"+  c #B95909",
"@  c #AB5519",
"#  c #B95913",
"$  c #B6591E",
"%  c #B95B1D",
"&  c #9E5C2F",
"*  c #9A5D38",
"=  c #A45626",
"-  c #AC5A26",
";  c #A45728",
":  c #A6592A",
">  c #AB5D2D",
",  c #B65B22",
"<  c #B95D25",
"1  c #B75E2B",
"2  c #B85E29",
"3  c #A25C34",
"4  c #9E603D",
"5  c #AF602F",
"6  c #BD6226",
"7  c #B6622C",
"8  c #BD632B",
"9  c #AF6031",
"0  c #AA653C",
"q  c #B56534",
"w  c #B96733",
"e  c #B76837",
"r  c #B86837",
"t  c #B5653A",
"y  c #B6693A",
"u  c #BB6A39",
"i  c #C75600",
"p  c #CD6815",
"a  c #C76924",
"s  c #CC6B26",
"d  c #C2662D",
"f  c #C46A2E",
"g  c #CD6E2C",
"h  c #C56A33",
"j  c #C66B34",
"k  c #CA6D34",
"l  c #C26E3A",
"z  c #CC7036",
"x  c #C6703C",
"c  c #CB733C",
"v  c #D37233",
"b  c #D2753C",
"n  c #D5783F",
"m  c #E77D27",
"M  c #9B6343",
"N  c #9B6A4D",
"B  c #9D6D51",
"V  c #98765D",
"C  c #9F795F",
"Z  c #A66A46",
"A  c #AD6A43",
"S  c #A46D4C",
"D  c #B66741",
"F  c #B56B43",
"G  c #B46B4B",
"H  c #AC714E",
"J  c #BB7145",
"K  c #B3744F",
"L  c #BB754C",
"P  c #B56F51",
"I  c #AC7553",
"U  c #A97759",
"Y  c #B67856",
"T  c #B2755C",
"R  c #8D7965",
"E  c #847E6D",
"W  c #927964",
"Q  c #9A7D65",
"!  c #AE7D6B",
"~  c #B47A62",
"^  c #B17F6C",
"/  c #C27243",
"(  c #CA7442",
")  c #CD7847",
"_  c #C37649",
"`  c #CB7A4D",
"'  c #D67A42",
"]  c #D97E46",
"[  c #D17A48",
"{  c #C67C55",
"}  c #CC7B50",
"|  c #C77F5A",
" . c #5B877F",
".. c #67857B",
"X. c #6B887E",
"o. c #748377",
"O. c #7A8375",
"+. c #75897D",
"@. c #7C8A7C",
"#. c #8E816E",
"$. c #828474",
"%. c #898777",
"&. c #938875",
"*. c #A9826A",
"=. c #AF8372",
"-. c #A98678",
";. c #AB8A7D",
":. c #BC8A74",
">. c #BA917E",
",. c #DC8147",
"<. c #DD844C",
"1. c #C5805F",
"2. c #DC8652",
"3. c #D68A5F",
"4. c #D9895A",
"5. c #E08345",
"6. c #E08448",
"7. c #C48364",
"8. c #C7886A",
"9. c #D68C63",
"0. c #D18E6B",
"q. c #D1906E",
"w. c #C08B74",
"e. c #CC9174",
"r. c #C6957D",
"t. c #C99479",
"y. c #D39372",
"u. c #528D86",
"i. c #5C8D84",
"p. c #4A918A",
"a. c #54928B",
"s. c #5C938B",
"d. c #5F938A",
"f. c #5D9C93",
"g. c #628D84",
"h. c #6A8D83",
"j. c #768E82",
"k. c #629087",
"l. c #64948B",
"z. c #67978D",
"x. c #68948A",
"c. c #649D94",
"v. c #6B9C93",
"b. c #719A90",
"n. c #64A097",
"m. c #6EA096",
"M. c #64A39A",
"N. c #6CA399",
"B. c #70A197",
"V. c #71A59B",
"C. c #7FA3A7",
"Z. c #71AAA0",
"A. c #73AAA9",
"S. c #969E9D",
"D. c #AA8E83",
"F. c #AC9185",
"G. c #A6958E",
"H. c #A9938A",
"J. c #B59384",
"K. c #BB9483",
"L. c #B5998C",
"P. c #BD9B8A",
"I. c #A59C95",
"U. c #A89891",
"Y. c #A59F99",
"T. c #B39D92",
"R. c #A4A29D",
"E. c #ADA29A",
"W. c #B1A097",
"Q. c #82A6AA",
"!. c #85AAAE",
"~. c #8CADAF",
"^. c #9AA7A6",
"/. c #92ACAD",
"(. c #9BABAA",
"). c #87ADB1",
"_. c #89AEB2",
"`. c #8AAFB3",
"'. c #8DAEB1",
"]. c #89AFB4",
"[. c #90AEB0",
"{. c #84B1B6",
"}. c #88B0B4",
"|. c #8BB0B4",
" X c #8BB1B4",
".X c #8CB2B6",
"XX c #82B2B8",
"oX c #8EB4B8",
"OX c #90B3B7",
"+X c #9CB3B4",
"@X c #92B6BA",
"#X c #9AB7B9",
"$X c #92B9BD",
"%X c #95BABE",
"&X c #99B9BC",
"*X c #A2A5A2",
"=X c #ABAAA5",
"-X c #A3ADAA",
";X c #A1B2B1",
":X c #C39780",
">X c #C29A86",
",X c #95BCC0",
"<X c #95BCC1",
"1X c #96BDC1",
"2X c #8FC1C7",
"3X c #91C1C6",
"4X c #91C2C8",
/* pixels */
"C.C.C.C.C.C.C.C.C.C.C.C.C.C.C.C.C.C.C.Q.C.C.C.C.C.C.C.C.C.C.C.C.C.C.C.Q.C.C.C.C.C.C.C.C.C.C.C.C.C.C.C.C.C.C.C.C.C.C.C.C.C.C.C.C.",
"C.C.C.C.C.C.C.C.C.C.C.C.C.C.C.C.C.C.C.C.C.C.C.C.C.C.C.C.C.C.C.C.C.C.C.C.C.C.C.C.C.C.C.C.C.C.Q.C.C.C.C.C.C.C.C.Q.C.C.C.C.C.C.C.C.",
"C.C.C.C.C.C.C.C.C.C.C.C.C.C.C.C.C.C.C.C.C.C.C.C.C.C.C.C.C.C.C.C.C.C.C.C.C.C.C.C.C.C.C.C.C.C.C.C.C.C.C.C.C.C.C.C.C.C.C.C.Q.C.C.C.",
"C.Q.C.C.C.C.C.C.C.C.C.Q.C.C.C.C.C.C.C.C.C.C.C.C.C.C.C.Q.Q.C.C.C.C.C.C.C.C.C.C.C.C.C.C.C.C.C.C.C.C.C.C.C.C.C.C.C.C.C.C.C.C.C.C.C.",
"C.C.C.C.C.C.C.C.C.C.C.C.C.C.C.C.C.C.C.C.C.C.C.C.C.C.Q.`.`.!.!.C.C.C.C.C.C.C.C.C.C.C.C.C.C.C.C.C.C.C.Q.C.C.C.C.C.C.C.C.C.C.C.C.C.",
"C.C.C.C.C.C.Q.`.`.C.C.C.C.C.C.C.C.C.C.C.C.C.C.C.C.C.Q.`.`.`.|.).C.C.C.C.C.C.C.C.C.C.Q.C.C.C.C.C.C.C.C.C.C.C.C.C.C.C.C.C.C.C.C.C.",
"C.C.C.C.).!.!.`.`.!.C.C.C.C.C.C.C.C.C.C.C.C.C.C.C.C.C.!.}.`.`.!.Q.C.C.C.C.C.C.C.C.C.C.C.C.C.C.C.C.C.C.C.C.C.C.C.C.C.C.C.C.C.C.C.",
"C.C.C.!.|.`.`.`.).C.!.Q.C.C.C.Q.C.C.C.C.C.C.C.C.C.C.C.Q.'.`.`.).|.!.C.C.C.Q.C.C.C.C.C.C.C.C.C.C.C.C.C.C.C.C.C.C.C.Q.C.C.C.C.C.C.",
"C.C.C.Q.`.`.`.`.`.!.`.`.Q.C.C.C.C.C.C.C.C.C.C.C.C.!.!.!.`.`.'.}..X`.Q.C.Q.`.).C.C.C.C.C.C.C.C.C.C.C.C.C.C.C.C.C.C.C.C.C.C.C.C.C.",
"C.C.C.C.!.`.`.`.`.!.`.`.`.!.Q.C.C.C.C.C.C.C.C.C.!.|.`.`.'.`.}.'.`.`.`.Q.`.`.`.Q.C.C.C.C.C.C.C.C.C.C.C.C.C.C.C.Q.C.C.C.C.C.Q.Q.C.",
"C.C.C.Q.`.`.`.`.`.).`.`.`.`.!.C.C.C.C.C.C.C.Q.!.Q.`.}.'.`.`.}.}./.'.{.`.`.`.`.Q.C.C.C.C.C.C.C.C.C.C.C.C.C.C.!.`.).C.C.C.Q.`.`.Q.",
"C.C.Q.`.`.`.`.`.`.`.`.`.`.`.Q.C.C.C.C.C.C.C.`.`.!.`.{.].^.`.XX/.9.r././.XX`.{.`.Q.C.C.C.C.C.C.C.C.C.C.C.C.C.`.`.`.Q.C.C.Q.`.`.).",
"!.!.!.`.`.`.`.`.`.`.`.`.`.|.!.Q.`.Q.Q.Q.C.Q.`.'.|.{.'.*Xe.W.E.P.4.0.T.t.^.^.(.|.Q.Q.C.C.C.C.C.C.C.C.C.Q.`.Q.!.`.`.`.).Q.C.).`.`.",
"`.`.`.`.`.`.`.`.`.`.`.`.`.`.!.`. X`.C.Q.`.!.!.{.'.r.r.r.t.5.<.5.2.<.q.5.>Xr.q.A.).!.C.C.C.C.C.C.C.C.C.).`.`.`.`.`.`.`.).`.`.`.`.",
"`.`.`.`.`.`.`.`.`.`.`.`.`.`.`.`.`.`.!.`.`.}.~./.(.q.5.2.6.2.2.6.<.6.6.6.9.2.4.T.^.'.!.C.C.C.C.C.Q.!.Q.!.`.`.`.`.`.`.`.`.`.`.`.`.",
"`.`.`.`.`.`.`.`.`.`.`.`.`.`.`.`.`.`.`.`. X)./.0.r.<.<.<.] ' ] <.6.2.2.<.5.2.5.0.t.(.).C.).!.C.C.`.'.`.!.`.`.`.`.`.`.`.`.`.`.`.`.",
"`.`.`.`.`.`.`.`.`.`.`.`.`.`.`.`.`.`.`.`.`.`.(.3.5.<.] ' ] ] 6.<.<.<.<.2.,.,.2.<.2.0.*X].`.`.).Q.!.`.`.`.`.`.`.`.`.`.`.`.`.`.`.`.",
"`.`.`.`.`.`.`.`.`.`.`.`.`.`.`.`.`.`.`.`.}.`.e.<.<.2.<.<.<.6.2.2.<.<.,.] ] ] <.<.<.n P.|.`.`.`.`.).`.`.`.`.`.`.`.`.`.`.`.`.`.`.`.",
"`.`.`.`.`.`.`.`.`.`.`.`.`.`.`.`.`.`.`.}.(.r.4.<.2.6.<.<.<.6.<.<.2.<.,.,.<.<.] ] 2.5.T.{.~. X`.`.`.`.`.`.`.`.`.`.`.`.`.`.`.`.`.`.",
"`.`.`.`.`.`.`.`.`.`.`.`.`.`.`.`.`.`.`.}.~.2.,.<.<.<.<.6.<.2.<.<.2.6.<.2.<.<.<.<.5.5.y.*X`.`.`.`.`.`.`.`.`.`.`.`.`.`.`.`.`.`.`.`.",
"`.`.`.`.`.`.`.`.`.`.`.`.`.`.`.`.`.`.'.{.W.<.<.] ' ] ] ' ' ] 6.2.6.2.6.2.2.6.2.6.2.2.m P.{.`.`.`.`.`.`.`.`.`.`.`.`.`.`.`.`.|.|.|.",
"`.`.`.`.`.`.`.`.`.`.`.`.`.`.`.`.`.|.|.XXW.,.<.<.<.6.<.<.] 2.<.<.2.6.2.6.6.2.6.2.2.5.e.W.E.{.`.`.`.`.`.`.`.`.`.`.`.`.`.`.`.<X<XoX",
"`.`.`.`.`.`.`.`.`.`.`.`.`.`.`.`.`.`.~.R.R.,.5.2.6.2.6.2.<.2.] ] ] <.6.<.2.6.6.2.<.2.2.y.P.{.`.`.`.`.`.`.`.`.`.`.`.`.`.`.@X<X<X%X",
"`.`.|.|.@X|.`.`.`.`.`.`.`.`.`.`.`.`.|.7.[ ] <.6.2.<.<.<.6.] ' ] ] ] ' ,.6.6.2.6.2.<.6.5.9.T.{.`.|.`.`.`.`.`.`.`.`.`.`.`.|.%X%X<X",
"oX|.`.%X3X%X X}.`.}.`.`.`.`.`.`.`.|.J.` v ' <.<.<.<.<.6.<.] 2.6.2.<.,.2.,.2.<.<.<.] ] 2.5.>X-X+X$XoX`.}.`.`. X`.`.`.oX$X$X%X<X<X",
"<X$XoX%X%X$X X`. X~.~.}.`.`.`.|.~.`.I.) b ] ' ] <.<.<.,.<.<.6.2.<.<.] ' ] <.2.,.' ] ] <.2.y.y.&X<X&X XoX`.`.`.}.`.`.%X<X<X<X3X%X",
"<X%X<X<X%X%X X X`.}. X`.`.`.`.'.J.J.J.` ] ] <.2.<.' b ' 6.2.<.<.<.6.,.b b ' <.<.' b b ] <.6.=X<X3X$X$X%X.X`.}.`.!.|.$X%X%X%X%X%X",
"%X<X<X%X%X%X$X X X~.`.}.|.`.{.Y.b [ n } ] <.<.] ' ' z ' <.<.<.<.6.2.<.' b ] ' ] b b b <.5.<.4.0.T.%X%X%X@X`.}.~.@X%X<X<X<X%X3X%X",
"<X<X<X%X<X3XoX X$X$X.X.X`.`.`.~.7.v b b ' ' <.,.b b ' ] <.<.<.<.<.<.' ] b ] b b b b ] ] b <.,.p P.<X%X%X}.`. X`.&X1X1X%X<X%X<X%X",
"3X%X%X<X&X&X}.%X%X%X%X&X`.`.-.P 7.b b b b b ] ' b ' ' ' ' ] <.6.] <.' b b b b b b b ] <.] ] <.[ 1.;X3X%XoX`.~.`. X&X%X%X%X<X%X3X",
"%X3X%X%X1X%X%X%X%X%X%X3XOX`.S.7 s ' b b ' ] b z b b b b b <.] ' ' <.] b b b b b b b b ] b ] ' v ) >X#X3X$X X X X$X$X%X3X1X1X%X3X",
"%X%X%X<X%X1X1X%X%X3X%X$X X/.-.T s k b b b z d d j j b b b ] <.k b <.' b z b k z b b b ] ' b b v [ 8.-X*XoX$X$X$X%X%X%X1X%X%X1X&X",
"1X%X%X1X%X<X<X%X<X<XoXoX`.^.S.P # < z n b n b < $ d b b ' ' b ] ' ' z b 7 f d , k b b ' b b b b c ` i ! 3X$X<X%X%X3X&X1X%X%X1X%X",
"%X%X3X%X3X%X<X&X<X<X<X<X<X^ G D < d z n n d k < < j z b j b v n b b b b d , < j k b b b b b b b h a =.H.<X<X%X%X%X%X3X%X1X1X%X1X",
"1X%X&X1X%X3X%X3X<X%X<X+X(.G.X , d ' n d d d d , < d j n j 6 b b b j b z < , , 6 j b b b b b z b j p ^ I.+X2X%X<X<X%X<X<X%X1X1X1X",
"%X1X3X%X%X&X&X3X<X%X<X;X;.t X < < k k z , d d , , j j z d < b b k j < d k , , , z j b b j z d j 2 2 . F +X1X%X%X%X<X%X<X1X%X1X%X",
"1X1X%X1X%X3X&X%X<X<X%X3X;.w ;.t % j 6 d < , , , , < d j , j b j b j , < 2 < k < , d k z < d d , 1 , =.H.<X<X<X<X1X1X%X1X1X%X1X%X",
"1X%X1X%X%X%X%X<X%X<X<X<XH.(.U.1 , d < , d 8 , , , , 7 d , d b 1 j 1 1 # O < d < $ d < d j , j 1 O X H.<X%X<X%X<X%X%X1X%X%X1X%X3X",
"1X%X1X%X%X3X<X<X<X<X%X<X<X%XD + # % 2 , d 6 , , < 1 O + 1 d d , , O . ! ^ O 2 , 1 1 < $ , % 1 < ;.G D.%X<X<X<X%X1X%X1X1X%X1X%X1X",
"1X1X%X1X<X<X%X%X%X%X<X%X<X#XG y F.# X , , 2 < 1 < O ^ G O , , , % ^ ^ ;X&X^ < 2 O X O w , q X T <X*X%X<X%X%X%X<X1X%X%X%X1X1X%X%X",
"%X%X&X%X%X&X%X%X<X%X%X3X%X#X(.U.-X~ ! % % O 1 G.q G -X;.Z 9 1 q P &X3X%X&XY X 2 ;.F.H.T I.=.G F.&X3X%X%X%X3X%X%X%X3X3X%X&X%X%X3X",
"1X3X3X%X3X3X<X3X+X&X3X#X%X3X4X%X+X<X(.O G I.2 U.Y D.<X%XS.3 A 0 ;.%X3X%X3XF.T ! %X3X<X@X3X@X=.;X3X&X%X<X4X*X(.3X3X;XW.&X3X<X3XE.",
";X#XW.>.R.+XF.+XL.E.L.7.w.W.;XE.J.L.Y.J.:.U.l :.1./ L.-XA S I I Y #X;X#X+X+XK.+XL.+X;X;XT.W.( T.&XL.>.<XU.w R.$XL.w.g >.-XL.-X) ",
"w.>.g s 6 e + Y ~ ) g z s g c w.` p c } k c ( a j x g v w M Z U | 7.T -.r _ g ( ) 1.( z c { g 8.{ / ) >.8 u y { ` ( ( g g ) { z ",
"( ( c u e e y w j h ( l ( ( c g z ( x j x c c u l c ( ( x 4 Z U K 8 y w w l c c c k c c ( c ( g z c c h y r x z c c c c ( c c c ",
"c u u r e e u x u y u u l c ( ( l u u u l c c ( c ( c c u M S H *.L w u u u u x l x c c c c c ( c x u e u r r u x x x / z c c b ",
"u e w r e x x u w u u l l z l x u l x x x c c c c c u u 0 * & S 0 y y u u w q u u u l x c c x x u e u x x x r r r y 0 V Q K x x ",
"c u r l e w u u l l x x c x u l c l x b ( c c c u u 7 : 4 & = Z 0 0 A > u c u l l y u l c x l c u u x x c x u A r S o...p.O.#.b.",
"c x c c u x x u c c c c c x x c c c b c ( l l l r q : > : : : = : = : 5 u c x u r r l c c u x c c c c c c x a V   o.u.l.v.l.c.M.",
"c c c c c c c c x c c c x x x x ( x l l x w r w r y q e q : e > ; 5 9 u r u y r r l x x ( x l c c c c c I +.j.@.f.i.v.V.l.g.B.N.",
"x x c c c c c c b c c x u r y x l l l w r l l l w l l u e q r q 9 e e e r w r q y z x c z c z c c x c x $.M.V.n.i.i.N.i.k.N.v.l.",
"u x x x x x c c x u u u r r e e w y u e u x u u u x x x c u u u x r y q y t t   O.$.L L I L J k z h c Q h.N.V.m.l.v.n.g.i.g.i.d.",
"u c u u u x u u x r q r r 9 r r e w y w r u l c c c c c x l x l u u e x e O.o.l.N.a.C @.a.@.v.&.U +.Q $.f.B.k.k.z.d.k.d.l.&.*.%.",
"u x r r w r r r r r r r q 5 > > w e r y u r x x c c c c x l u l x x z I R g.c.l.g.k.d.i.l.c.m.M.n.M.c.v.v.i.l.B.n.#.U l.*._ _ c ",
"u e e u e q 5 > 9 y r r r r > > q e r w l u r l x l u c c c c ( ( u Q +.a.c.z. .z.k.i.n.v.l.k.v.B.v.m.l...k.v.M.f.C y A J z c c ",
"e e e e e r 5 5 r r r r r r r y e e q q r r r u c u x c c ( c ( _ U s.n.v.d.i.z.Z.i.+.%.z.m.V.s.i.k.x.c.f.M.n.O.#.H w z c ( c c ",
"r y y r r r r r q q q q w r q q q > : : e q e r l u c l x x g Y #.Y i.l.l.k.k.m.l.O.F H M M O.$.h.X.N W #.#.$.* S 8 u x x x x c ",
"r 7 > 9 r r r 5 : > ; q r r e 5 - : : = : > e q e r e r u y E $.s... .k.V.m.i.a.#.y u e - = 3 4   4 ; o 6 8 7 ; 5 e e r u x c c ",
"9 5 : = q 9 > = ; ; = = 5 9 r q e e q = = > 7 > e e y r e V a.n.n. .i.n.z.s.k.C Z - u > q : = = 3 = = ; ; 5 > ; 5 q e u x u x c ",
"e e > > r r > ; = = = = = > > > 5 : = = = = > y w y 8 A S X.z.v.k.v.N.d.s.+.4 @ = = : = = = = = = : ; > ; = ; ; 5 q w r r u x x ",
"q : ; 5 r r q q : 5 5 = > ; ; = = = = : : : 1 r e B   ..E h.i.g.m.v.X.#.z.M o : = > 9 > q = : > = > 7 9 q 5 > ; > 5 r y r u x u ",
"q = 9 q q 5 : : 5 > = ; 5 > 5 ; > = : q > q S 0 R h.n.z.i.i.k.c.p.O.U H Z - 9 : > = q q 5 q q > = : > e 9 q r 9 5 q r 5 > q r u ",
"r r q 7 r q 9 ; = = ; = 9 q q 7 e 9 > = e S g...h.n.v.V.g.l.c.X.$.Q y r 7 r 9 q > = = 5 : : : = ; = = > 5 9 r r r r q 9 5 5 e r ",
"r y q 9 u r y 7 = = ; ; 5 : > q > > : 9 0 V i.l.i.z.N.l.g.k.a.E a w > e y e y q = = = : > = = : = = = = : q r r r r r r r r r r "
};
