/* XPM */
static char *_a2177fa8b084c6fac9504d1bb222a6fExD0hPG5LxGmbFu4[] = {
/* columns rows colors chars-per-pixel */
"64 64 120 2 ",
"   c #2E2D2A",
".  c #302F2D",
"X  c #34322E",
"o  c #363533",
"O  c #393735",
"+  c #393836",
"@  c #393738",
"#  c #3C3B39",
"$  c #413F3C",
"%  c #43413E",
"&  c #454441",
"*  c #494643",
"=  c #4C4945",
"-  c #4E4D49",
";  c #504F4B",
":  c #53514D",
">  c #5A544F",
",  c #575350",
"<  c #595651",
"1  c #5D5A55",
"2  c #5F5C58",
"3  c #605C56",
"4  c #635E5A",
"5  c #64615C",
"6  c #6A645F",
"7  c #6C6762",
"8  c #6E6965",
"9  c #716B65",
"0  c #776F69",
"q  c #75706B",
"w  c #7D756D",
"e  c #7C786F",
"r  c #7F7671",
"t  c #7E7971",
"y  c #7F7D78",
"u  c #80776E",
"i  c #81786E",
"p  c #807772",
"a  c #827A74",
"s  c #897E77",
"d  c #857D79",
"f  c #8A7F79",
"g  c #858077",
"h  c #86807A",
"j  c #8B837C",
"k  c #8E8681",
"l  c #8F8983",
"z  c #918780",
"x  c #918984",
"c  c #918B87",
"v  c #938B87",
"b  c #938C84",
"n  c #908C86",
"m  c #938D87",
"M  c #958D85",
"N  c #948E89",
"B  c #968E89",
"V  c #998F89",
"C  c #96918A",
"Z  c #97938C",
"A  c #989189",
"S  c #9A928E",
"D  c #9C948C",
"F  c #9D968E",
"G  c #9E998E",
"H  c #9E9A91",
"J  c #A79D93",
"K  c #A39D95",
"L  c #A7A097",
"P  c #A9A197",
"I  c #AAA198",
"U  c #ABA39A",
"Y  c #B1A89E",
"T  c #B1A99F",
"R  c #AFAAA1",
"E  c #B1AAA1",
"W  c #B2ABA2",
"Q  c #B5ABA3",
"!  c #B5B0A7",
"~  c #B5B1A8",
"^  c #BEB4AA",
"/  c #BCB5AD",
"(  c #BEB5AC",
")  c #BFB5AC",
"_  c #BEBAB2",
"`  c #C1B4AB",
"'  c #C1B7AF",
"]  c #C3B9AF",
"[  c #C4BBB1",
"{  c #C5BEB6",
"}  c #C8BEB5",
"|  c #C8BFB5",
" . c #CABFB6",
".. c #C4C1B7",
"X. c #C9C0B6",
"o. c #C6C1B9",
"O. c #CAC5BA",
"+. c #CCC4B9",
"@. c #CDC9BE",
"#. c #CFC9BE",
"$. c #CECABF",
"%. c #D1C7BD",
"&. c #D0CCBF",
"*. c #CFCAC1",
"=. c #CFCDC1",
"-. c #D2CBC1",
";. c #D1CFC1",
":. c #D2CEC3",
">. c #D2CEC4",
",. c #D3CFC4",
"<. c #D4D0C5",
"1. c #D7D0C6",
"2. c #D9D4C9",
"3. c #DAD5CC",
"4. c #EAE4D5",
"5. c #E9E8D8",
"6. c #F6F5E1",
"7. c #F9F7E5",
"8. c #FCFBE7",
"9. c #FCFBE9",
/* pixels */
"+ + + + + + + + w O + % = + + + + o + + + < + + + + d w p p r r r ,.,.c z w + O r + O + + + + m O + b p u O w O & + O p # r u w ",
"o @ o O = + + + i O O # O + + o + O r m + + + + c h w c p p r w r a v j <.+ O O & + + O + + O r + + a @ 5 o a & O + 9 + w u O w ",
"o : % u = + + + w + + O + + 9 % + @ 8 d p 4 O S d b p u Q p z u N c c d O 9 # + + O O * + 9 = & + + + + > w w + + + 9 9 w % O O ",
"u 3 u u + + + + w + + + + + + + + O , r w p O S c p p ` ^ p z c c w u p p p 5 + r r + + p t O r + + + + - % w + + + 9 O u # + O ",
"O > u } o o + + w + + O + O O 6 O @ + u w r j p p b ] v b v v &.( r t p r p r a c * O c # p O c + + % w 1 O O + + + o o w # i j ",
"u u u w + + & + ` + r w ] e w # O + + + u r &.w i c m m %.b z v k i p p %.r p c w O v p + w O p + O O O e w o + + + 9 u t w u # ",
"O J u u = % & + u O O + % ( ] Y O r r r p r ,.@ w v v c -.c c p j r r c <.r r r r l O p # z O r + + + w + + u + + + 7 + O c b @ ",
"+ + u u 6 % + + w O w w % q q Y 0 0 r r p p w e + 0 v [ { p u d J r w D w p r r c q + z p p o $ % + + t # + p + + + $ p p c Z k ",
"u j O g Y O + + u O u e w u + + d a t r r ,.r w z u c #.w p <.<.r 2.c k r p o X X a N p O o w O a + @ r p O a + + + 9 p c z z & ",
"e +.O w j + + + &.O i u p p w b & # 2 r O @ + w c c z :.#.t &.p d l c z c c O O + O c @ + + r w r + @ r r O  .+ + + 9 c j z ( + ",
"w ] + + P # + + K + + 6 u o r 9 O & 4 O + + + + c ` c #.b b c ] A c -.c r + + + @ 9 + ; - # 2 7 + + @ r k 2 ,.+ + + 9 > l ' + + ",
"2.j w O O O + + O + w O i X u w O p O <.+ + + + u c z c c c o.] z c c 8 O O + O O O m O & 2...o + + O N U ,.} + + + 9 c $ ^ @ c ",
"X.u :.:.O O O + O O w # X.% O % t r O O + + u e w z ` N z o.j ] c v [ p p O 4 O + + @ % *.w *.<.+ + + O U O X.+ O O w d c # c O ",
"] ! w L : # O + O # ] D # L 6 : O 4 * < + + h < s m c ] U ..b O.S ] p 9 O O 4 2 d # & d O.r & r + + + { 4 +.} + O & r c 4 O O w ",
"} } i :.% # + + + # u w s <.&.+ + + + O p + + + + z z ` %.X.c z v w O O ] p w -.r j # w O.+ [ [ r + + w 7 { o.O * & r c + ^ c u ",
"&.} e w < + + + O O w 0 } u + + + + + O t j <.o & :.h [ ] c v c c . ] } [ p p # & - + r O.o t :.r + O O } { -.$ & O a O ' v ' u ",
"&.U w :.> + + + O 6 ] 6 < + + o + + : O O - l c ( r w F [ { c H F ] [ X.[ r r } _ o -.t O :.E [ @ + + + } } &.O O + t @ ` R ( e ",
"&.U s &.3 + + + % ` X.] ! o + + o e O O O + + O z p r *.#.[ z c [ [ [ { [ r s s ] #.:.@ O [ ` p + + + ( [ X.X.O + + + + c ( ' u ",
"&.U s :.2 + + + i ` ] [ _ o + 2 g + > O + o + + + w r r n ` b c [ [ [ [ ] d d ] { [ =.  O =.[ p + + O ^ [ ` ..+ + + + =.*.%.` u ",
"s s f -.2 + + + ` ] ] [ #.o O L q + 2 =.+ + + + + % o.p c ` c #.[ -.] -.] d r [ p [ =.-.O ] [ w + + O ` } -.} + + + + -.*.%.d u ",
"s f s [ 2 + + + ] ] [ %.[ ] t 7 @ + + @ % + + + p p t t #.O.c #.] ] =.:.] t r p ] [ ] <.# &.] w + + r ' } =.-.o O + R =.*.#.p o.",
"} f f [ < + + + ] ] [ } [ ] :.! r r 4 @ O + + N p p p p =.X.c -.-.*.[ %.:.r r ] ] } [ %.] + } X + & ,.r } } <.+ + + R -.#.t &.g ",
"X.s f [ < + + + ] ] [ ] [ [ #.*.p r w 0 O r r t d r p r t X.c -.-.=.=.*.*.r t [ [ [ ] [ ] O % o & + X.-.C } } + + + R *.b #.:.<.",
"} j s <.4 + O # ] :.$.[ [ ] } O.:.a r #.p p p r r r r t w O.b $.#.=.#.<.-.r r [ ] ] [ [ :.+ : % & o <.X.U p } O + + R -.l #.:.%.",
"} d z { 2 O O + [ } } ] [ [ #.o.( r r <./ R r r r r l r t ! c :.<.#.=.*.[ r r { [ ] [ %.:.] : & + + %.} Q [ X.+ + + R =.b *.( w ",
"<.z z o 2 + + O :.[ ] -.[ [ #.[ } r r w r r r r r r -.p #.o.b ,.=.=.] [ [ r t w w ! [ ] #.^ - + + O } } X.X.} + @ O R <.b =.<.t ",
",.l s ,.O @ + O =.] ] =.[ ] #.{ #.r r r w Q w a ..:.r r r o.V :.=.] [ O.:.r r r p r ] ( [ <.+ + + O [ X.X.} { + + + ~ <.l #.w =.",
"#.f s E + + + + ] :.*.:.] [ =.#.5.r r r w j r r r *.*.*.:.#.c Q *.[ r R ] r p F t ( ( ] { =.+ + + : } X.+.] } + + & ~ #.b *.$.:.",
"{ J f s O O O O [ -.:.*.:.[ 8.8.9.r r r r N r r r #.*.=.#.=.z c :.] ` H %.r r [ ] p X.X.] ;._ + + < :.} } *.} O # + R $.c *.-.*.",
"} U f s + O O O =.=.] ] } ] ( 9.8.r r w r r q r r #.=.=.*.=.c c ] [ =.] r r r [ <.[ { ] ] <._ + + < } } O.{ } & + o R :.c %.:.*.",
"} P f f + + + _ -.{ 4.4.8.] [ 5.8.r r 8.=.K j b r *.@.#.=.=.l c { #.-.=.#.r r =.X.] =.*.:.] =.+ o < } %.-.*.+.& + + R :.b *.#.=.",
"X.U f ,.O + + ' =.] 8.8.8.[ [ 8.9.r p 8.8.E r w ..@.*.*.=.-.=.c H =.=.&.:.r E :.=.[ =.[ -.=.] + + > <.#.-.:.:.+ + + #.*.c #.*.#.",
":.J s ,.+ + + _ $.:.9.8.8.[ ] 8.8.r p 9.8.u z c 6.@.=.*.:.=.-.z H =.;.*.;.r R <.=.] [ =.-.=.-.o + < =.*.<.=.O + + + &.<.c #.] #.",
":.U j <.+ + + _ =.8.8.8.8.[ [ 8.8.p w 9.8.8.v m 8.<.*.=.*.*.-.c G *.*.=.*.r R %.:.[ [ :.:.*._ + + < *.=.;.#...@ + + %.,.c $.=.#.",
"-.J f <.+ + # _ =.8.8.8.8.[ ] 8.8.p p 8.8.8.v v 8.8.#.:.:.=.-.c b *.#.#.#.p W ] :.] ] <.#.:._ + o > :.*.#.;.X.+ + + :.j b =.=.-.",
"-.j j <.+ + + ( =.8.8.8.8.[ ] 8.9.p p 9.8.8.z c 8.8.:.#.:.*.=.n c :.#.:.<.t W ] *.=.] *.:.#._ + + > <.*.#.<.+ + + + &.c l =.#.#.",
"*.f f :.& # + _ <.8.8.8.8.] ] 8.r p r 8.8.8.b c 8.8.@.@.:.$.*.b l #.#.:.=.r E [ <.#.] =.=.;._ + O < =.*.<.#.+ + + + G c c :.#.O.",
"=.s s c * # @ _ %.8.8.8.8.] { 8.w r w 9.8.8.c c 8.8.&.&.*.:.<.l z #.,.=.<.w E ] *.#.[ =.=.$._ + O < =.$.=.$.+ + + + A c :.#.:.=.",
":.U f j @ + + _ =.8.8.8.8.] 8.8.r p w 7.8.8.c c 8.<.&.:.:.#.:.l Z *.#.=.-.t E [ *.<.] :.=.*...+ + < ;.:.=.$.+ + + + D n %.:.,.#.",
"-.J j j + o + _ =.;.8.8.8.] 8.8.a s r 8.8.9.z l 8.#.=.&.*.=.*.D l #.*.*.r r T <.#.:.[ =.*.<...O O < =.=.:.#.+ + + + H l <.,.&.:.",
"*.P s j + + + { :.$.8.8.9.[ 8.8.a r r 8.8.9.c z <.:.<.=.*.:.;.c n *.*.:.r r E *.[ <.] @.<.$._ O O > ;.#.$.:.+ + + + F c #.@.&.$.",
"#.P s j + + O O *.;.<.8.8.] 8.8.w r r 8.8.8.c v =.*.#.*.@.<.<.l c -.<.*.r r E -.o.$.` @.#.=._ O O < *.:.=.=.+ + + O G j %.<.#.<.",
"*.#.j + + + O O :.#.=.#.8.] 8.8.r r r 8.8.9.c z :.=.*.*.#.@.*.;.l #.#.$.r r Y :.=.] ] O.#.$._ + + < =.*.:.#.+ + & # F z *.=.;.=.",
"=.*.s + + + + O *.=.:.#.*.] 6.8.w r r 8.7.J c c =.=.#.;.@.#.*.=.c <.*.=.r r E =.#.] ^ #.#.<.+ + O > =.#.<.o + + & % S c <.*.=.-.",
"=.-.s 6 O + + O =.*.<.=.<.] :.,.r r r ,.-.K c c <.#.#.=.#.<.:.*.c $.*.<.w r W =.#.( _ &.:.#._ + + < =.=.<.o o & & b F c #.=.:.#.",
"*.-.j s + + + O #.@.=.<.*.[ $.=.r r r %.-.J c c *.$.;.*.#.*.$.;.b <.$.:.r r Y O.O.[ [ =.-.=._ + O < <.=.*.o O + + :.$.c $.=.#.<.",
":.*.j s O + + O :.<.<.#.:.] -.*.w r r :.:.K c x *.:.*.=.;.*.:.#.l -.-.:.r r U O.#.[ [ =.=.*._ + O < #.;.=.o + + + $.<.l *.;.=.=.",
"#.<.s j + + + O ;.*.#.=.*.[ :.*.r r p -.-.J v x ;.*.:.=.*.;.*.=.c :.:.%.r r o.*.=.[ [ *.*.:._ + O < =.=.#.O + + + :.*.l :.#.:.*.",
"&.:.s j + + + + =.=.$.=.:.[ *.<.r r r -.*.K z c #.:.<.#.*.<.#.=.c &.*.=.r r #.<.-.[ ] =.=.=.+ + O < =.=.%.o + + + <.-.c &.=.:.#.",
"=.*.s j + + + + $.:.:.=.#.[ [ #.r r r *.#.K c z &.&.=.&.$.:.;.*.c :.:.-.r r *.=.=.[ [ :.=.=.+ + O 5 #.*.:.o + + o #.:.z -.*.=.:.",
"<.U s j O O + O :.:.$.&.=.[ [ =.r r r #.:.N c c *.;.:.$.;.*.:.=.c z #.=.r t %.=.*.[ ] =.:.=.+ + O 2 ,.=.:.o + + + :.F c %.:.*.:.",
"%.P j j & + + O #.$.<.#.=.] [ *.r t a :.,.l c c :.#.<.*.#.<.#.=.c c :.=.r r <.=.:.[ ] :.#.:.+ + # > =.[ ] O + + + [ F c [ ] ] ] ",
"<.P s s & + O + -.*.#.:.*.] [ =.r r t *.=.l c l $.*.<.$.&.:.=.[ j N -.+.r r W =.-.[ [ =.&.<.% % + : ] ] ] ] + + + ] F v ] ] [ [ ",
"&.P j d O + + + ] &.<.] :.] [ #.r t r =.b C l l ^ ] ] [ [ ] ] b z z c U r r W =.-.] [ *.&.] O % + : ] ] X.] + + + ] z c A [ ] ] ",
"<.g j d O + + + w ] [ [ [ ] [ Y w w r t t l l t e ] ] [ [ ^ c C c c c w r r r e ] ] ] ] _ g % + + : { X.] ] + + + + v c j ] [ c ",
"a j t t + O + + + e L e e e t w q e t w t t e e e e e e j z c j j w r p r r e e t q t w g g + + + + e j z c + + + + N j c c j j ",
"g e e e + + + + + t e e e + + e e e e e e e e e e e e e e t e e w p w + a t : w + e y g % e + + + + e e t + + + + $ t w e e + e ",
"e e t + + + + + O + + + + # & o e e t e e e e + t e + t e e e t + + + + + + + + + # y % + + + + + + @ + + + + + $ + 8 p e e + + ",
"O O + + + + + + + + + + + + + + + + + + + + + + + + + % + + + + + + + + + + + + + + + + + + + + + + + + + + + $ * + O + O + + + ",
"+ O + O + + + + + + + + + + + + + o + + + + + + + & % + + + + + + + + + + + + + + + + + + + + + + + + + + + $ # O O + + O + + + ",
"O + + + o + + + + + + + + + + + + + @ + : - : ; , 1 + + + + + + + + O O + + + + + + + + + + + + + + + + + % $ + + + + + O + + + ",
"O + O - - - : # # + + + + + + + + + + + + + + + % + + + + + + + + + + O + + + + + + + - ; # + + + # # + % + O + + + + + O O + + ",
"; ; : : % + + % + + + + + + + + + + + + + + + + + + + + O + + - : : : : - : : O + + + + + + + + + $ : : : - : - + + + + O O + + ",
": & O O + + + + % + + + + + + + + + + + + + + + + # + + : - : - : - + # * - : - ; + + + + + + + + + + + % : - : - - : - : : ; : "
};
